<?xml version="1.0" encoding="utf-8"?>
<!-- Generator: Adobe Illustrator 22.1.0, SVG Export Plug-In . SVG Version: 6.00 Build 0)  -->
<svg version="1.1" id="Layer_1" xmlns="http://www.w3.org/2000/svg" xmlns:xlink="http://www.w3.org/1999/xlink" x="0px" y="0px"
	 viewBox="0 0 38.8 28.1" style="enable-background:new 0 0 38.8 28.1;" xml:space="preserve">
<style type="text/css">
	.st0{clip-path:url(#SVGID_2_);fill:#97CA4C;}
	.st1{clip-path:url(#SVGID_2_);fill:none;stroke:#25282A;stroke-width:1.5;stroke-miterlimit:10;}
</style>
<g>
	<defs>
		<rect id="SVGID_1_" y="0" width="38.8" height="28.1"/>
	</defs>
	<clipPath id="SVGID_2_">
		<use xlink:href="#SVGID_1_"  style="overflow:visible;"/>
	</clipPath>
	<path class="st0" d="M36.8,28.1H13.9c-1.1,0-2-0.9-2-2L36.8,7.5c1.1,0,2,0.9,2,2v16.6C38.8,27.2,37.9,28.1,36.8,28.1"/>
	<path class="st1" d="M34.3,24.5h-32c-0.9,0-1.6-0.7-1.6-1.6V2.3c0-0.9,0.7-1.6,1.6-1.6h32c0.9,0,1.6,0.7,1.6,1.6v20.6
		C35.9,23.8,35.2,24.5,34.3,24.5z"/>
	<polyline class="st1" points="35.7,1.4 18.3,15.2 1,1.4 	"/>
	<line class="st1" x1="15" y1="12.7" x2="1" y2="23.9"/>
	<line class="st1" x1="35.7" y1="23.9" x2="21.7" y2="12.7"/>
</g>
</svg>
