<?xml version="1.0" encoding="utf-8"?>
<!-- Generator: Adobe Illustrator 22.1.0, SVG Export Plug-In . SVG Version: 6.00 Build 0)  -->
<svg version="1.1" id="Layer_1" xmlns="http://www.w3.org/2000/svg" xmlns:xlink="http://www.w3.org/1999/xlink" x="0px" y="0px"
	 viewBox="0 0 35.9 36.6" style="enable-background:new 0 0 35.9 36.6;" xml:space="preserve">
<style type="text/css">
	.st0{clip-path:url(#SVGID_2_);fill:#97CA4C;}
	.st1{clip-path:url(#SVGID_2_);fill:none;stroke:#25282A;stroke-miterlimit:10;}
	.st2{clip-path:url(#SVGID_2_);fill:none;stroke:#242729;stroke-miterlimit:10;}
	.st3{clip-path:url(#SVGID_2_);fill:#242729;}
</style>
<g>
	<defs>
		<rect id="SVGID_1_" y="0" width="35.9" height="36.6"/>
	</defs>
	<clipPath id="SVGID_2_">
		<use xlink:href="#SVGID_1_"  style="overflow:visible;"/>
	</clipPath>
	<path class="st0" d="M35.9,22.1c0,8-6.5,14.6-14.6,14.6S6.7,30.1,6.7,22.1S13.3,7.5,21.3,7.5S35.9,14,35.9,22.1"/>
	<circle class="st1" cx="16.5" cy="16.5" r="16"/>
	<path class="st2" d="M8,19.9c1.1,3.6,4.5,6.3,8.5,6.3c4,0,7.4-2.6,8.5-6.3"/>
	<path class="st3" d="M13.3,12.5c0,0.5-0.4,0.9-0.9,0.9c-0.5,0-0.9-0.4-0.9-0.9c0-0.5,0.4-0.9,0.9-0.9C12.9,11.6,13.3,12,13.3,12.5"
		/>
	<path class="st2" d="M13.3,12.5c0,0.5-0.4,0.9-0.9,0.9c-0.5,0-0.9-0.4-0.9-0.9c0-0.5,0.4-0.9,0.9-0.9C12.9,11.6,13.3,12,13.3,12.5z
		"/>
	<path class="st3" d="M21.6,12.5c0,0.5-0.4,0.9-0.9,0.9s-0.9-0.4-0.9-0.9c0-0.5,0.4-0.9,0.9-0.9S21.6,12,21.6,12.5"/>
	<path class="st2" d="M21.6,12.5c0,0.5-0.4,0.9-0.9,0.9s-0.9-0.4-0.9-0.9c0-0.5,0.4-0.9,0.9-0.9S21.6,12,21.6,12.5z"/>
</g>
</svg>
