<?xml version="1.0" encoding="utf-8"?>
<!-- Generator: Adobe Illustrator 22.1.0, SVG Export Plug-In . SVG Version: 6.00 Build 0)  -->
<svg version="1.1" id="Layer_1" xmlns="http://www.w3.org/2000/svg" xmlns:xlink="http://www.w3.org/1999/xlink" x="0px" y="0px"
	 viewBox="0 0 22.7 30.6" style="enable-background:new 0 0 22.7 30.6;" xml:space="preserve">
<style type="text/css">
	.st0{clip-path:url(#SVGID_2_);fill:#97CA4C;}
	.st1{clip-path:url(#SVGID_2_);fill:none;stroke:#25282A;stroke-miterlimit:10;}
</style>
<g>
	<defs>
		<rect id="SVGID_1_" y="0" width="22.7" height="30.6"/>
	</defs>
	<clipPath id="SVGID_2_">
		<use xlink:href="#SVGID_1_"  style="overflow:visible;"/>
	</clipPath>
	<path class="st0" d="M18.7,13c0,3-2.4,5.4-5.4,5.4S7.8,16,7.8,13s2.4-5.4,5.4-5.4S18.7,10,18.7,13"/>
	<path class="st1" d="M11.3,30.1c-0.2,0-0.4-0.1-0.5-0.2C10.4,29.3,0.5,17.1,0.5,11.3c0-6,4.9-10.8,10.8-10.8
		c6,0,10.8,4.9,10.8,10.8c0,5.8-9.9,18-10.4,18.5C11.7,30,11.5,30.1,11.3,30.1z"/>
	<path class="st1" d="M11.3,17.8c-3.3,0-6.1-2.7-6.1-6.1c0-3.3,2.7-6.1,6.1-6.1s6.1,2.7,6.1,6.1C17.4,15.1,14.7,17.8,11.3,17.8z"/>
</g>
</svg>
