<?xml version="1.0" encoding="utf-8"?>
<!-- Generator: Adobe Illustrator 22.1.0, SVG Export Plug-In . SVG Version: 6.00 Build 0)  -->
<svg version="1.1" id="Layer_1" xmlns="http://www.w3.org/2000/svg" xmlns:xlink="http://www.w3.org/1999/xlink" x="0px" y="0px"
	 viewBox="0 0 33.8 29.5" style="enable-background:new 0 0 33.8 29.5;" xml:space="preserve">
<style type="text/css">
	.st0{fill:#97CA4F;}
	.st1{clip-path:url(#SVGID_2_);fill:none;stroke:#26282A;stroke-miterlimit:10;}
</style>
<rect x="22.3" y="21.6" class="st0" width="11" height="7.3"/>
<g>
	<defs>
		<rect id="SVGID_1_" y="0" width="33.8" height="29.5"/>
	</defs>
	<clipPath id="SVGID_2_">
		<use xlink:href="#SVGID_1_"  style="overflow:visible;"/>
	</clipPath>
	<path class="st1" d="M5,10.6V2.7c0-1.2-1-2.2-2.2-2.2H0.5v16.1L6.7,24v5h7.8V17.5l-6.7-7.4C7.2,9.6,6.3,9.5,5.7,10l-2.1,1.8
		l7.1,7.6"/>
	<path class="st1" d="M28.8,10.6V2.7c0-1.2,1-2.2,2.2-2.2h2.3v16.1L27.2,24v5h-7.8V17.5l6.7-7.4c0.6-0.6,1.5-0.6,2.1-0.1l2.1,1.8
		l-7.1,7.6"/>
</g>
</svg>
