<?xml version="1.0" encoding="utf-8"?>
<!-- Generator: Adobe Illustrator 22.1.0, SVG Export Plug-In . SVG Version: 6.00 Build 0)  -->
<svg version="1.1" id="Layer_1" xmlns="http://www.w3.org/2000/svg" xmlns:xlink="http://www.w3.org/1999/xlink" x="0px" y="0px"
	 viewBox="0 0 22.3 20.9" style="enable-background:new 0 0 22.3 20.9;" xml:space="preserve">
<style type="text/css">
	.st0{clip-path:url(#SVGID_2_);fill:#97CA4C;}
	.st1{clip-path:url(#SVGID_2_);fill:#25282A;}
</style>
<g>
	<defs>
		<rect id="SVGID_1_" y="0" width="22.3" height="20.9"/>
	</defs>
	<clipPath id="SVGID_2_">
		<use xlink:href="#SVGID_1_"  style="overflow:visible;"/>
	</clipPath>
	<path class="st0" d="M22.3,18.7v-8.6c0-1.2-1-2.2-2.2-2.2L7.6,19.4c0,1.2,1,1.5,2.2,1.5h10.4C21.4,20.9,22.3,19.9,22.3,18.7"/>
	<rect x="8.6" y="12.6" class="st1" width="1.1" height="0.7"/>
	<rect x="11.3" y="12.6" class="st1" width="1.1" height="0.7"/>
	<rect x="14" y="12.6" class="st1" width="1.1" height="0.7"/>
	<rect x="16.7" y="12.6" class="st1" width="1.1" height="0.7"/>
	<rect x="8.6" y="14.7" class="st1" width="1.1" height="0.7"/>
	<rect x="11.3" y="14.7" class="st1" width="1.1" height="0.7"/>
	<rect x="14" y="14.7" class="st1" width="1.1" height="0.7"/>
	<rect x="16.7" y="14.7" class="st1" width="1.1" height="0.7"/>
	<rect x="8.6" y="16.9" class="st1" width="1.1" height="0.7"/>
	<rect x="11.3" y="16.9" class="st1" width="1.1" height="0.7"/>
	<rect x="14" y="16.9" class="st1" width="1.1" height="0.7"/>
	<rect x="16.7" y="16.9" class="st1" width="1.1" height="0.7"/>
	<path class="st1" d="M6.4,19.9h13.1c0.8,0,1.5-0.7,1.5-1.5V8.6c0-0.8-0.7-1.5-1.5-1.5H6.4v0.7h13.1c0.4,0,0.7,0.3,0.7,0.7v9.9
		c0,0.4-0.3,0.7-0.7,0.7H6.4V19.9z"/>
	<path class="st1" d="M3.8,19.9c0.8,0,1.4-0.6,1.4-1.4V8.5c0-0.8-0.6-1.4-1.4-1.4H1.4C0.6,7.1,0,7.7,0,8.5v10.1
		c0,0.8,0.6,1.4,1.4,1.4H3.8z M0.7,18.5V8.5c0-0.4,0.3-0.6,0.6-0.6h2.4c0.4,0,0.6,0.3,0.6,0.6v10.1c0,0.4-0.3,0.6-0.6,0.6H1.4
		C1,19.2,0.7,18.9,0.7,18.5"/>
	<polygon class="st1" points="19.1,5.9 19.1,0 7.6,0 7.6,5.9 8.3,5.9 8.3,0.7 18.3,0.7 18.3,5.9 	"/>
	<rect x="10.3" y="2.4" class="st1" width="6.1" height="0.7"/>
	<rect x="10.3" y="4.7" class="st1" width="6.1" height="0.7"/>
	<polygon class="st1" points="8.2,9.3 8.2,11 18.3,11 18.3,9.3 17.5,9.3 17.5,10.2 9,10.2 9,9.3 	"/>
</g>
</svg>
