<?xml version="1.0" encoding="utf-8"?>
<!-- Generator: Adobe Illustrator 25.0.0, SVG Export Plug-In . SVG Version: 6.00 Build 0)  -->
<svg version="1.1" id="Layer_1" xmlns="http://www.w3.org/2000/svg" xmlns:xlink="http://www.w3.org/1999/xlink" x="0px" y="0px"
	 viewBox="0 0 34.4 32.7" style="enable-background:new 0 0 34.4 32.7;" xml:space="preserve">
<style type="text/css">
	.st0{fill:#97CA4C;}
	.st1{clip-path:url(#SVGID_2_);fill:none;stroke:#25282A;stroke-miterlimit:10;}
	.st2{clip-path:url(#SVGID_4_);fill:none;stroke:#25282A;stroke-miterlimit:10;}
	.st3{clip-path:url(#SVGID_6_);fill:none;stroke:#25282A;stroke-miterlimit:10;}
	.st4{clip-path:url(#SVGID_8_);fill:none;stroke:#25282A;stroke-miterlimit:10;}
	.st5{fill:none;stroke:#25282A;stroke-linejoin:bevel;stroke-miterlimit:10;}
</style>
<rect x="25.5" y="7.6" class="st0" width="8.9" height="24.6"/>
<g>
	<g>
		<defs>
			<rect id="SVGID_1_" width="34.4" height="32.7"/>
		</defs>
		<clipPath id="SVGID_2_">
			<use xlink:href="#SVGID_1_"  style="overflow:visible;"/>
		</clipPath>
		<polygon class="st1" points="8.1,32.2 32.5,32.2 32.5,3.3 0.5,3.3 0.5,23.6 		"/>
	</g>
	<g>
		<defs>
			<rect id="SVGID_3_" width="34.4" height="32.7"/>
		</defs>
		<clipPath id="SVGID_4_">
			<use xlink:href="#SVGID_3_"  style="overflow:visible;"/>
		</clipPath>
		<line class="st2" x1="7.1" y1="6" x2="7.1" y2="0"/>
	</g>
	<g>
		<defs>
			<rect id="SVGID_5_" width="34.4" height="32.7"/>
		</defs>
		<clipPath id="SVGID_6_">
			<use xlink:href="#SVGID_5_"  style="overflow:visible;"/>
		</clipPath>
		<line class="st3" x1="25.9" y1="6" x2="25.9" y2="0"/>
	</g>
	<g>
		<defs>
			<rect id="SVGID_7_" width="34.4" height="32.7"/>
		</defs>
		<clipPath id="SVGID_8_">
			<use xlink:href="#SVGID_7_"  style="overflow:visible;"/>
		</clipPath>
		<polyline class="st4" points="0.5,23.6 8.1,23.6 8.1,32.2 		"/>
	</g>
</g>
<g>
	<path class="st5" d="M22,14c0,0-1.1,6.1-5.4,6.1c-2.6,0-4.5-1.9-4.5-4.8c0-2.7,1.9-5.2,4.9-5.2c3.2,0,5.3,2.5,5.3,6.3
		c0,2.9-1.1,5.2-2.5,6.7c-1.2,1.2-2.9,2-4.8,2.2c-0.6,0.1-1.1,0.1-1.5,0.1"/>
</g>
</svg>
