<?xml version="1.0" encoding="utf-8"?>
<!-- Generator: Adobe Illustrator 22.1.0, SVG Export Plug-In . SVG Version: 6.00 Build 0)  -->
<svg version="1.1" id="Layer_1" xmlns="http://www.w3.org/2000/svg" xmlns:xlink="http://www.w3.org/1999/xlink" x="0px" y="0px"
	 viewBox="0 0 34.6 34.3" style="enable-background:new 0 0 34.6 34.3;" xml:space="preserve">
<style type="text/css">
	.st0{fill:none;stroke:#25282A;stroke-miterlimit:10;}
	.st1{clip-path:url(#SVGID_2_);fill:#97CA4C;}
	.st2{clip-path:url(#SVGID_2_);fill:none;stroke:#25282A;stroke-miterlimit:10;}
</style>
<line class="st0" x1="4.3" y1="6.5" x2="13.3" y2="6.5"/>
<line class="st0" x1="4.1" y1="10.9" x2="13" y2="10.9"/>
<g>
	<defs>
		<rect id="SVGID_1_" y="0" width="34.6" height="34.3"/>
	</defs>
	<clipPath id="SVGID_2_">
		<use xlink:href="#SVGID_1_"  style="overflow:visible;"/>
	</clipPath>
	<path class="st1" d="M21.4,16.8c0-3.3,2.6-5.9,5.9-5.9s5.9,2.6,5.9,5.9c0,3.3-2.6,5.9-5.9,5.9S21.4,20.1,21.4,16.8"/>
	<polyline class="st1" points="23.8,21.5 23.8,33.1 27.3,29.9 30.8,33.1 30.8,21.5 	"/>
	<polyline class="st2" points="17.6,27.6 0.5,27.6 0.5,0.5 34.1,0.5 34.1,27.6 27.9,27.6 	"/>
	<circle class="st2" cx="24.4" cy="16.8" r="5.9"/>
	<polyline class="st2" points="20.8,21.5 20.8,33.1 24.4,29.9 27.9,33.1 27.9,21.5 	"/>
</g>
</svg>
