<?xml version="1.0" encoding="utf-8"?>
<!-- Generator: Adobe Illustrator 22.1.0, SVG Export Plug-In . SVG Version: 6.00 Build 0)  -->
<svg version="1.1" id="Layer_1" xmlns="http://www.w3.org/2000/svg" xmlns:xlink="http://www.w3.org/1999/xlink" x="0px" y="0px"
	 viewBox="0 0 28.7 32.9" style="enable-background:new 0 0 28.7 32.9;" xml:space="preserve">
<style type="text/css">
	.st0{clip-path:url(#SVGID_2_);fill:#97CA4F;}
	.st1{clip-path:url(#SVGID_2_);fill:none;stroke:#26282A;stroke-miterlimit:10;}
</style>
<g>
	<defs>
		<rect id="SVGID_1_" y="0" width="28.6" height="32.9"/>
	</defs>
	<clipPath id="SVGID_2_">
		<use xlink:href="#SVGID_1_"  style="overflow:visible;"/>
	</clipPath>
	<path class="st0" d="M28.2,32.9H7.4c-1.4,0-2.5-1.1-2.5-2.5v-0.2c0-1.4,1.1-2.5,2.5-2.5h20.8V32.9z"/>
	<path class="st1" d="M0.5,28.1v-25c0-1.4,1.2-2.6,2.6-2.6h21.4v25"/>
	<rect x="24.6" y="3.6" class="st1" width="3.6" height="3.9"/>
	<rect x="24.6" y="10.9" class="st1" width="3.6" height="3.9"/>
	<path class="st1" d="M24.6,25.4v4.9H3.3c-1.5,0-2.8-1.1-2.8-2.5s1.2-2.5,2.8-2.5H24.6"/>
	<line class="st1" x1="17.8" y1="27.8" x2="24.6" y2="27.8"/>
	<path class="st1" d="M18.6,18.2l-2.8-2.7l-2.2,1.4l-2-3l-2-3l2.2-1.4l-1.3-3.6c-0.1-0.4-0.6-0.6-1-0.4l-2.3,1
		c-0.7,0.3-1.2,1-1.2,1.7c0,3.2,1.4,5.9,2.5,7.6c1.1,1.7,3,4.1,6,5.4c0.7,0.3,1.5,0.2,2.1-0.3l1.8-1.7C18.9,19,18.9,18.5,18.6,18.2z
		"/>
</g>
</svg>
