<?xml version="1.0" encoding="utf-8"?>
<!-- Generator: Adobe Illustrator 22.1.0, SVG Export Plug-In . SVG Version: 6.00 Build 0)  -->
<svg version="1.1" id="Layer_1" xmlns="http://www.w3.org/2000/svg" xmlns:xlink="http://www.w3.org/1999/xlink" x="0px" y="0px"
	 viewBox="0 0 34.4 35" style="enable-background:new 0 0 34.4 35;" xml:space="preserve">
<style type="text/css">
	.st0{clip-path:url(#SVGID_2_);fill:#97CA4F;}
	.st1{clip-path:url(#SVGID_2_);fill:none;stroke:#26282A;stroke-miterlimit:10;}
</style>
<g>
	<defs>
		<rect id="SVGID_1_" y="0" width="34.4" height="35"/>
	</defs>
	<clipPath id="SVGID_2_">
		<use xlink:href="#SVGID_1_"  style="overflow:visible;"/>
	</clipPath>
	<path class="st0" d="M22.7,24.9v-1.1c0-2-1.7-3.7-3.7-3.7c-2,0-3.7,1.7-3.7,3.7v1.1H22.7z"/>
	<path class="st0" d="M17,18c0-1.1,0.9-2,2-2c1.1,0,2,0.9,2,2c0,1.1-0.9,2-2,2C17.9,20,17,19.1,17,18"/>
	<path class="st1" d="M20.6,24.9v-1.1c0-2-1.7-3.7-3.7-3.7c-2,0-3.7,1.7-3.7,3.7v1.1"/>
	<circle class="st1" cx="16.9" cy="18" r="2"/>
	<path class="st1" d="M9.1,20.5c0-4.5,3.7-8.2,8.2-8.2s8.2,3.7,8.2,8.2s-3.7,8.2-8.2,8.2S9.1,25,9.1,20.5z"/>
	<path class="st1" d="M13.2,4.6c0-2.2,1.8-4.1,4.1-4.1c2.2,0,4.1,1.8,4.1,4.1c0,2.2-1.8,4.1-4.1,4.1C15,8.6,13.2,6.8,13.2,4.6z"/>
	<path class="st1" d="M25.8,30.5c0-2.2,1.8-4.1,4.1-4.1c2.2,0,4.1,1.8,4.1,4.1c0,2.2-1.8,4.1-4.1,4.1C27.7,34.5,25.8,32.7,25.8,30.5
		z"/>
	<line class="st1" x1="17.2" y1="12.3" x2="17.2" y2="8.6"/>
	<line class="st1" x1="26.6" y1="28.1" x2="23.5" y2="25.7"/>
	<path class="st1" d="M8.6,30.5c0-2.2-1.8-4.1-4.1-4.1c-2.2,0-4.1,1.8-4.1,4.1c0,2.2,1.8,4.1,4.1,4.1C6.8,34.5,8.6,32.7,8.6,30.5z"
		/>
	<line class="st1" x1="7.8" y1="28.1" x2="11" y2="25.7"/>
</g>
</svg>
