<?xml version="1.0" encoding="utf-8"?>
<!-- Generator: Adobe Illustrator 22.1.0, SVG Export Plug-In . SVG Version: 6.00 Build 0)  -->
<svg version="1.1" id="Layer_1" xmlns="http://www.w3.org/2000/svg" xmlns:xlink="http://www.w3.org/1999/xlink" x="0px" y="0px"
	 viewBox="0 0 33.8 33.2" style="enable-background:new 0 0 33.8 33.2;" xml:space="preserve">
<style type="text/css">
	.st0{clip-path:url(#SVGID_2_);fill:#97CA4C;}
	.st1{clip-path:url(#SVGID_2_);fill:none;stroke:#25282A;stroke-miterlimit:10;}
</style>
<g>
	<defs>
		<rect id="SVGID_1_" y="0" width="33.8" height="33.2"/>
	</defs>
	<clipPath id="SVGID_2_">
		<use xlink:href="#SVGID_1_"  style="overflow:visible;"/>
	</clipPath>
	<path class="st0" d="M12.1,19.1c0-2.6,2.1-4.8,4.8-4.8c2.6,0,4.8,2.1,4.8,4.8s-2.1,4.8-4.8,4.8C14.3,23.9,12.1,21.7,12.1,19.1"/>
	<rect x="0.5" y="3.3" class="st1" width="32.8" height="29.4"/>
	<line class="st1" x1="0.5" y1="12.5" x2="33.3" y2="12.5"/>
	<line class="st1" x1="7.2" y1="6" x2="7.2" y2="0"/>
	<line class="st1" x1="26.5" y1="6" x2="26.5" y2="0"/>
	<line class="st1" x1="13.8" y1="19.2" x2="20" y2="19.2"/>
	<line class="st1" x1="24.4" y1="19.2" x2="30.7" y2="19.2"/>
	<line class="st1" x1="24.4" y1="25.9" x2="30.7" y2="25.9"/>
	<line class="st1" x1="3.2" y1="19.2" x2="9.4" y2="19.2"/>
	<line class="st1" x1="13.8" y1="25.9" x2="20" y2="25.9"/>
	<line class="st1" x1="3.2" y1="25.9" x2="9.4" y2="25.9"/>
</g>
</svg>
