<?xml version="1.0" encoding="utf-8"?>
<!-- Generator: Adobe Illustrator 22.1.0, SVG Export Plug-In . SVG Version: 6.00 Build 0)  -->
<svg version="1.1" xmlns="http://www.w3.org/2000/svg" xmlns:xlink="http://www.w3.org/1999/xlink" x="0px" y="0px"
	 viewBox="0 0 1163.2 133.6" style="enable-background:new 0 0 1163.2 133.6;" xml:space="preserve">
<style type="text/css">
	.st0{fill:#041019;}
	.st1{clip-path:url(#SVGID_2_);fill:url(#SVGID_3_);}
	.st2{clip-path:url(#SVGID_5_);fill:url(#SVGID_6_);}
	.st3{fill:none;stroke:#565656;stroke-width:0.466;stroke-miterlimit:10;}
	.st4{clip-path:url(#SVGID_8_);fill:url(#SVGID_9_);}
	.st5{clip-path:url(#SVGID_11_);fill:url(#SVGID_12_);}
	.st6{clip-path:url(#SVGID_14_);fill:url(#SVGID_15_);}
	.st7{clip-path:url(#SVGID_17_);fill:url(#SVGID_18_);}
	.st8{fill:url(#SVGID_19_);}
	.st9{fill:url(#SVGID_20_);}
	.st10{fill:url(#SVGID_21_);}
	.st11{fill:url(#SVGID_22_);}
</style>
<g id="Layer_2">
</g>
<g id="Layer_1">
	<g>
		<g>
			<rect x="270.9" class="st0" width="18.4" height="130.1"/>
			<polygon class="st0" points="483.2,55.9 424.4,55.9 424.4,0 406,0 406,130.1 424.4,130.1 424.4,74.3 483.2,74.3 483.2,130.1 
				501.5,130.1 501.5,0 483.2,0 			"/>
			<path class="st0" d="M347.6,33.7c-25.1,0-45.6,20.4-45.6,45.6v50.8h18.4V79.3c0-15,12.2-27.2,27.2-27.2s27.2,12.2,27.2,27.2v50.8
				h18.4V79.3C393.2,54.2,372.8,33.7,347.6,33.7"/>
			<path class="st0" d="M559.6,33.7c-26.6,0-48.3,21.7-48.3,48.3s21.7,48.3,48.3,48.3s48.3-21.7,48.3-48.3S586.2,33.7,559.6,33.7
				 M559.6,112c-16.5,0-30-13.4-30-30s13.4-30,30-30c16.5,0,30,13.4,30,30S576.1,112,559.6,112"/>
			<path class="st0" d="M826.7,103.2c-9.4,9.4-23.6,11.2-34.9,5.5l54.3-54.3l-6.5-6.5c-18.8-18.8-49.5-18.8-68.3,0
				s-18.8,49.5,0,68.3c9.4,9.4,21.8,14.1,34.2,14.1s24.8-4.7,34.2-14.1l6.5-6.5l-13-13L826.7,103.2z M784.3,60.9
				c5.8-5.8,13.5-8.8,21.2-8.8c4.7,0,9.4,1.1,13.7,3.3l-40.3,40.3C773.1,84.5,774.9,70.3,784.3,60.9"/>
			<path class="st0" d="M729.2,130.1h18.4V70.9c0-20.5-16.7-37.1-37.1-37.1c-11.1,0-21.1,5-27.9,12.8c-6.8-7.8-16.8-12.8-27.9-12.8
				c-20.5,0-37.1,16.7-37.1,37.1v59.3H636V70.9c0-10.3,8.4-18.8,18.8-18.8c10.3,0,18.8,8.4,18.8,18.7l0,0v59.3H692V70.9l0,0
				c0-10.3,8.4-18.7,18.8-18.7c10.3,0,18.8,8.4,18.8,18.8v59.1H729.2z"/>
		</g>
		<g>
			<g>
				<g>
					<defs>
						<path id="SVGID_1_" d="M108.4,69l50.8,50.8c13.7,13.7,36.2,13.7,50,0c13.7-13.7,13.7-36.2,0-50l-47.3-47.3l-6-1L108.4,69z"/>
					</defs>
					<clipPath id="SVGID_2_">
						<use xlink:href="#SVGID_1_"  style="overflow:visible;"/>
					</clipPath>
					
						<linearGradient id="SVGID_3_" gradientUnits="userSpaceOnUse" x1="4822.3828" y1="-1720.6117" x2="4825.6528" y2="-1720.6117" gradientTransform="matrix(32.9591 0 0 32.9591 -158833.1094 56787.3125)">
						<stop  offset="0" style="stop-color:#003A60"/>
						<stop  offset="1" style="stop-color:#0067B0"/>
					</linearGradient>
					<rect x="108.4" y="21.5" class="st1" width="114.5" height="112"/>
				</g>
			</g>
			<g>
				<g>
					<defs>
						<path id="SVGID_4_" d="M108.4,69l50.8,50.8c13.7,13.7,36.2,13.7,50,0c13.7-13.7,13.7-36.2,0-50l-47.3-47.3l-6-1L108.4,69z"/>
					</defs>
					<clipPath id="SVGID_5_">
						<use xlink:href="#SVGID_4_"  style="overflow:visible;"/>
					</clipPath>
					
						<linearGradient id="SVGID_6_" gradientUnits="userSpaceOnUse" x1="4826.8389" y1="-1618.3898" x2="4830.1084" y2="-1618.3898" gradientTransform="matrix(33.9786 0 0 -33.9786 -163900.8281 -54913.1211)">
						<stop  offset="0" style="stop-color:#003A60"/>
						<stop  offset="1" style="stop-color:#0067B0"/>
					</linearGradient>
					<rect x="108.4" y="21.5" class="st2" width="114.5" height="112"/>
				</g>
			</g>
			<g>
				<line class="st3" x1="205.5" y1="48" x2="205.5" y2="48"/>
			</g>
			<g>
				<g>
					<defs>
						<path id="SVGID_7_" d="M110,9.9L51.2,68.7c-12.8,12.8-15.2,33.4-4.1,47.7c6.7,8.7,16.5,13.2,26.4,13.7h3.1
							c8.5-0.4,17-3.8,23.5-10.3l48.2-48.2c17.7-17,45.8-16.9,63.2,0.6L149.2,9.9c-5.4-5.4-12.5-8.1-19.6-8.1
							C122.5,1.8,115.4,4.5,110,9.9"/>
					</defs>
					<clipPath id="SVGID_8_">
						<use xlink:href="#SVGID_7_"  style="overflow:visible;"/>
					</clipPath>
					
						<linearGradient id="SVGID_9_" gradientUnits="userSpaceOnUse" x1="4874.52" y1="-1702.262" x2="4877.79" y2="-1702.262" gradientTransform="matrix(51.2486 0 0 51.2486 -249768.5313 87304.5391)">
						<stop  offset="0" style="stop-color:#12B36A"/>
						<stop  offset="1" style="stop-color:#9ACC57"/>
					</linearGradient>
					<rect x="36" y="1.8" class="st4" width="175.5" height="128.4"/>
				</g>
			</g>
			<g>
				<g>
					<defs>
						<path id="SVGID_10_" d="M110,9.9L51.2,68.7c-12.8,12.8-15.2,33.4-4.1,47.7c6.7,8.7,16.5,13.2,26.4,13.7h3.1
							c8.5-0.4,17-3.8,23.5-10.3l48.2-48.2c17.7-17,45.8-16.9,63.2,0.6L149.2,9.9c-5.4-5.4-12.5-8.1-19.6-8.1
							C122.5,1.8,115.4,4.5,110,9.9"/>
					</defs>
					<clipPath id="SVGID_11_">
						<use xlink:href="#SVGID_10_"  style="overflow:visible;"/>
					</clipPath>
					
						<linearGradient id="SVGID_12_" gradientUnits="userSpaceOnUse" x1="4876.6772" y1="-1635.9535" x2="4879.9473" y2="-1635.9535" gradientTransform="matrix(52.4507 0 0 -52.4507 -255745.0313 -85740.9063)">
						<stop  offset="0" style="stop-color:#00BF6F"/>
						<stop  offset="1" style="stop-color:#93DA49"/>
					</linearGradient>
					<rect x="36" y="1.8" class="st5" width="175.5" height="128.4"/>
				</g>
			</g>
			<g>
				<g>
					<defs>
						<path id="SVGID_13_" d="M0,32c0,16.7,13.5,30.2,30.2,30.2S60.5,48.7,60.5,32S47,1.8,30.3,1.8S0,15.3,0,32"/>
					</defs>
					<clipPath id="SVGID_14_">
						<use xlink:href="#SVGID_13_"  style="overflow:visible;"/>
					</clipPath>
					
						<linearGradient id="SVGID_15_" gradientUnits="userSpaceOnUse" x1="4702.0825" y1="-1762.936" x2="4705.3545" y2="-1762.936" gradientTransform="matrix(18.4904 0 0 18.4904 -86943.2656 32629.4414)">
						<stop  offset="0" style="stop-color:#12B36A"/>
						<stop  offset="1" style="stop-color:#9ACC57"/>
					</linearGradient>
					<rect y="1.8" class="st6" width="60.5" height="60.5"/>
				</g>
			</g>
			<g>
				<g>
					<defs>
						<path id="SVGID_16_" d="M0,32c0,16.7,13.5,30.2,30.2,30.2S60.5,48.7,60.5,32S47,1.8,30.3,1.8S0,15.3,0,32"/>
					</defs>
					<clipPath id="SVGID_17_">
						<use xlink:href="#SVGID_16_"  style="overflow:visible;"/>
					</clipPath>
					
						<linearGradient id="SVGID_18_" gradientUnits="userSpaceOnUse" x1="4702.0825" y1="-1574.517" x2="4705.3545" y2="-1574.517" gradientTransform="matrix(18.4904 0 0 -18.4904 -86943.2656 -29081.3984)">
						<stop  offset="0" style="stop-color:#00BF6F"/>
						<stop  offset="1" style="stop-color:#93DA49"/>
					</linearGradient>
					<rect y="1.8" class="st7" width="60.5" height="60.5"/>
				</g>
			</g>
		</g>
	</g>
	<g>
		<g>
			
				<linearGradient id="SVGID_19_" gradientUnits="userSpaceOnUse" x1="1084.4001" y1="63.6" x2="1154" y2="63.6" gradientTransform="matrix(1 0 0 -1 0 136)">
				<stop  offset="0" style="stop-color:#005EB8"/>
				<stop  offset="1" style="stop-color:#003B5C"/>
			</linearGradient>
			<path class="st8" d="M1154,72.4c0,21.5-17.2,39-38.6,39.4c16.3-0.4,29.4-13.8,29.4-30.2c0-16.6-13.5-30.2-30.2-30.2
				c-16.6,0-30.2,13.5-30.2,30.2V43.5c7.9-6.3,17.9-10.1,28.7-10.5c0.5,0,1,0,1.5,0C1136.3,33,1154,50.6,1154,72.4z"/>
			
				<radialGradient id="SVGID_20_" cx="1013.3317" cy="57.8994" r="137.7917" gradientTransform="matrix(1 0 0 -1 0 136)" gradientUnits="userSpaceOnUse">
				<stop  offset="0" style="stop-color:#93DA49"/>
				<stop  offset="1" style="stop-color:#00BF6F"/>
			</radialGradient>
			<path class="st9" d="M1163.2,81.7c0,26.9-21.8,48.7-48.7,48.7c-26.9,0-48.7-21.8-48.7-48.7c0-0.8,0-1.6,0.1-2.4h-0.1V-1h18.5
				v82.7c0,16.4,13.1,29.7,29.4,30.2c0.3,0,0.6,0,0.8,0c0.3,0,0.6,0,0.8,0c21.4-0.4,38.6-17.9,38.6-39.4c0-21.8-17.7-39.4-39.4-39.4
				C1141.4,33,1163.2,54.8,1163.2,81.7z"/>
		</g>
		
			<radialGradient id="SVGID_21_" cx="1013.3317" cy="57.8994" r="137.7917" gradientTransform="matrix(1 0 0 -1 0 136)" gradientUnits="userSpaceOnUse">
			<stop  offset="0" style="stop-color:#93DA49"/>
			<stop  offset="1" style="stop-color:#00BF6F"/>
		</radialGradient>
		<path class="st10" d="M1040.9,86.8c0,15.1-12.3,27.4-27.4,27.4s-27.4-12.3-27.4-27.4V33h-18.5v53.8c0,25.3,20.6,45.9,45.9,45.9
			s45.9-20.6,45.9-45.9V33h-18.5V86.8z"/>
		
			<radialGradient id="SVGID_22_" cx="1013.3317" cy="57.8994" r="137.7917" gradientTransform="matrix(1 0 0 -1 0 136)" gradientUnits="userSpaceOnUse">
			<stop  offset="0" style="stop-color:#93DA49"/>
			<stop  offset="1" style="stop-color:#00BF6F"/>
		</radialGradient>
		<path class="st11" d="M915.1,33c-10.3,0-19.8,3.4-27.4,9.1V-1h-18.5v79.9v51.2h18.5l0,0V78.7c0.1-15,12.4-27.2,27.4-27.2
			c15.1,0,27.4,12.3,27.4,27.4v51.2H961V78.9C961,53.6,940.4,33,915.1,33z"/>
	</g>
</g>
</svg>
