<?xml version="1.0" encoding="utf-8"?>
<!-- Generator: Adobe Illustrator 22.1.0, SVG Export Plug-In . SVG Version: 6.00 Build 0)  -->
<svg version="1.1" id="Layer_1" xmlns="http://www.w3.org/2000/svg" xmlns:xlink="http://www.w3.org/1999/xlink" x="0px" y="0px"
	 viewBox="0 0 529.5 99.6" style="enable-background:new 0 0 529.5 99.6;" xml:space="preserve">
<style type="text/css">
	.st0{clip-path:url(#SVGID_2_);fill:#25282A;}
</style>
<g>
	<defs>
		<rect id="SVGID_1_" y="0" width="529.5" height="99.6"/>
	</defs>
	<clipPath id="SVGID_2_">
		<use xlink:href="#SVGID_1_"  style="overflow:visible;"/>
	</clipPath>
	<path class="st0" d="M430.4,4.1c0.7-0.7,1.7-1.1,2.9-1.2c1.2,0,2,0.6,2.2,1.8c-0.2,1.1-0.5,1.4-1,1c-0.2-0.2-0.5-0.4-0.6-0.5
		c-0.7,0.4-1.6,1.3-2.6,2.7c-1,1.4-1.9,2.3-2.6,2.8c-1.5,1.6-3,3.5-4.5,5.7c-1.6,2.3-2.7,4-3.4,5.2c-0.7,1.2-1.9,3.5-3.7,6.8
		c-1.8,3.4-2.8,5.3-3.1,5.8c-3.1,5.9-5.4,11-6.9,15.2c6.4-7.4,12.8-12.3,19.4-15c0.8-0.3,1.5-0.5,2.1-0.5c1.1,0,2,0.3,2.8,0.9
		c0.8,0.6,1.2,1.4,1.2,2.5c0,2.9-1.4,6.7-4.2,11.3c-0.1,0.2-0.5,0.9-1.1,1.9c-0.7,1-1,1.7-1,2.1c0,0.3,0.1,0.5,0.4,0.6
		c3.7-2.5,5.8-4,6.5-4.7c1.4-1.2,4.6-3.1,9.7-5.8c4.2-1.9,6.7-2.9,7.6-3.1c0.2,0.1,0.2,0.2,0.2,0.5s-0.1,0.6-0.4,0.9
		c-0.3,0.4-0.6,0.8-1,1.2c-0.4,0.4-0.7,0.7-0.7,0.7c-1.2,1.1-3.1,2.6-5.6,4.3c-2.5,1.7-4,2.7-4.3,2.9c-5.9,3.8-9.9,6.3-12,7.5
		c-0.5,0.2-1,0.4-1.6,0.4c-0.9,0-1.7-0.3-2.3-0.9c-0.7-0.6-1-1.3-1-2.1c0-0.3,0-0.6,0.1-0.7c0.4-1.9,1.7-4.5,3.7-8
		c2.1-3.4,3.3-6.2,3.6-8.2c-0.1-0.3-0.2-0.6-0.4-0.7c-0.2-0.1-0.4-0.1-0.7-0.1c-0.3,0.1-0.6,0.2-0.8,0.2c-0.2,0.1-0.5,0.2-0.8,0.3
		c-0.3,0.1-0.5,0.2-0.7,0.3c-6.1,2.9-13,9-20.7,18.5c-0.1,0.2-0.2,0.4-0.2,0.7c-0.1,0.3-0.1,0.5-0.1,0.7l-0.6-0.2
		c-0.1,0.1-0.2,0.2-0.2,0.3c-0.1,0.1-0.2,0.2-0.2,0.3c-0.2-0.1-0.4-0.2-0.7-0.3c-0.3-0.1-0.6-0.2-0.7-0.3c-0.2-0.1-0.3-0.2-0.5-0.4
		c-0.2-0.2-0.2-0.4,0-0.7l-0.5-0.2c0.1-0.1,0.2-0.2,0.4-0.5c0.2-0.2,0.3-0.4,0.4-0.6c0.4-1.7,0.9-3.4,1.4-5.1c0.5-1.7,1.1-3.5,2-5.5
		c0.8-2,1.5-3.5,2-4.7c0.5-1.2,1.4-2.9,2.6-5.2c1.2-2.3,2-3.8,2.4-4.5c0.4-0.7,1.4-2.4,2.8-5.1c1.5-2.7,2.3-4.2,2.6-4.6
		C422.7,12.4,426.9,6.8,430.4,4.1 M402.2,56.9c0,0.3,0,0.6-0.1,0.7c0.7,0.7,1.2,0.7,1.7,0.1l-0.4-0.2l-0.7,0.4v-0.7L402.2,56.9z
		 M415.4,26.4l0.7-1.8c-0.1,0.1-0.2,0.3-0.5,0.7c-1.1,1.7-2.4,4.3-4.1,7.6c-1.7,3.4-2.8,5.6-3.4,6.6c-2.7,5.7-4.6,10.8-5.6,15.3
		c0.1-0.1,0.2-0.2,0.4-0.4c0.2-0.2,0.3-0.3,0.4-0.4c0.4-1.6,0.9-3.3,1.5-5.1c0.6-1.8,1.2-3.3,1.7-4.5c0.5-1.2,1.2-2.8,2.1-4.8
		c0.9-2,1.6-3.4,2.1-4.2c0.4-0.8,1.3-2.4,2.5-4.7C414.3,28.4,415.1,27,415.4,26.4 M403.9,55.7c-0.1,0.1-0.2,0.2-0.2,0.2
		c-0.1,0.1-0.2,0.2-0.2,0.2v0.4C403.6,56.3,403.8,56,403.9,55.7 M404.2,52.8c0.1-0.1,0.2-0.3,0.4-0.7c0.2-0.4,0.4-0.7,0.5-0.9
		c0.1-0.2,0.3-0.2,0.4-0.1c0.6-1.1,1-2.4,1.3-4.1c0.3-1.7,0.7-3,1.2-4c0.2-0.5,0.7-1.4,1.3-2.6c0.6-1.3,1-2.2,1.3-2.9
		C407.8,42.4,405.6,47.5,404.2,52.8 M429.9,38c-0.1-0.6-0.3-1-0.6-1.2c-0.3-0.2-0.7-0.3-1.3-0.2c-0.6,0.1-1,0.2-1.3,0.4
		c-0.3,0.1-0.8,0.4-1.5,0.8l-1,0.5c-6.1,3.2-12,8.3-17.7,15.5c-0.7,0.5-1.1,1.2-1.3,2.2c3.8-4.7,7.5-8.7,11-11.8
		c3.5-3.1,7.3-5.5,11.6-7.2C428.9,36.5,429.6,36.9,429.9,38 M409.9,47.9c-1.9,1.7-3.1,3.1-3.7,4.2C408.4,50,409.6,48.6,409.9,47.9
		 M423,37.3c-3,1.4-6.6,4-10.7,8C416.3,41.9,419.8,39.3,423,37.3 M422.5,14.4c-2.1,2.5-3.7,5-4.7,7.6c0.4-0.7,1.2-2,2.4-3.9
		C421.4,16.3,422.2,15,422.5,14.4 M437.1,47.5l-11,7H426c-0.1,0.1-0.2,0.1-0.2,0.1c-0.6,0-0.9-0.2-0.9-0.7c0-0.2,0-0.4,0.1-0.7
		c0.2-0.2,0.2-0.3,0.2-0.5c-0.3,0.8-0.5,1.3-0.5,1.3c0,0.6,0.2,0.9,0.7,0.9c0.2,0,0.5-0.1,1-0.2l10.7-7V47.5z M426.2,50.7
		c-0.2,0.3-0.4,0.6-0.5,0.9C425.9,51.2,426,50.9,426.2,50.7"/>
	<path class="st0" d="M10.8,86.4c-0.1-0.1-0.3-0.2-0.7-0.4c-0.4-0.2-0.6-0.3-0.7-0.4c-0.1-0.1-0.2-0.2-0.5-0.4
		C8.7,85.1,8.5,85,8.3,85c-0.1,0-0.2-0.1-0.4-0.2l0.1-0.2c-0.1-0.2,0-0.8,0.4-1.6c-0.2,0.6-0.6,1.1-1,1.6c-0.1,0-0.2-0.1-0.4-0.2
		C6.9,84.1,6.7,84,6.6,84c1.1-1.9,2.8-4.9,5.1-9.1c2.3-4.2,4.2-7.5,5.5-10c1.4-2.5,3-5.4,5.1-8.8c2-3.4,4-6.5,5.9-9.3
		C34.8,33.2,39.3,21.2,42,10.9c-0.1-1.4-0.8-2.1-2.1-2.1c-0.7,0-1.5,0.2-2.5,0.6c-1,0.4-2,0.9-3,1.5c-1,0.6-1.7,0.9-2,1.1
		c-6.1,4.1-12.6,10.2-19.5,18.3C6.7,37.7,3.3,45.8,2.5,54.5c-0.7,1.5-1,2.8-1,3.9c0,1.9,0.7,3.2,2,4C1.1,62.1,0,60,0,56.1v-4
		c1-11.3,7.9-22.9,20.9-34.8C28.6,9.9,35.3,6,41,5.4c2.9,0.1,4.3,1.8,4.3,5.2c0,1.1-0.3,2.5-1,4.2c-1.6,5.8-3.8,12.4-6.7,19.8
		c3.1-3.7,6.1-6.8,8.8-9.3c6.1-5.2,11-8.6,14.6-10.2c0.6-0.2,1.2-0.4,1.8-0.4c1.6,0,3,0.7,4,2.1c1,1.4,1.5,3,1.5,4.8
		c0,1.1-0.2,2.2-0.7,3.2c-2.5,6.9-5.8,14.7-9.7,23.6c2.3-3.5,4.2-6.2,5.6-8c8.8-11,18-19.4,27.9-25.3c1.6-1.4,3.5-2.1,5.9-2.1
		c3.2,0,4.8,1.3,4.8,4c0,0.2-0.1,0.7-0.2,1.3c-0.3,2.2-1,4.4-1.9,6.5c-0.9,2.1-2.3,4.6-4,7.5c-1.8,2.9-2.9,4.8-3.5,5.9
		c-0.4,0.7-2.6,4.6-6.6,11.5c-4,6.9-7,12.2-9,15.9c-0.2,0.5-1.4,2.5-3.6,6.1c-2.2,3.6-3.3,6.5-3.3,8.7c0,1.8,0.5,3.4,1.5,4.8
		s2.3,2.3,4,2.6c0.2,0.1,0.4,0.2,0.4,0.4c0,0.1-0.1,0.1-0.4,0.1c-1.1,0-2.5-0.4-4.4-1.2c0.2,0.2,0.5,0.5,0.9,0.8
		c0.3,0.3,0.6,0.6,0.7,0.8l0.4,0.2c0,0.1-0.6-0.2-1.8-0.7c-3-1.8-4.5-4.7-4.5-8.7c0-2.3,0.5-4.4,1.6-6.4l19.9-34.6
		c0.5-1,1.5-2.8,3.1-5.5c1.6-2.7,2.9-5,3.9-6.9s1.8-3.9,2.6-5.8c0.4-1,0.6-1.7,0.6-2.1c0-1.1-0.5-1.6-1.3-1.6c-0.7,0-1.3,0.3-2.1,1
		C87.7,21.3,79.8,28,71,37.5c-2,2-3.8,4.4-5.6,6.9c-1.8,2.6-3.8,5.5-5.9,8.7c-2.1,3.2-3.8,5.7-5,7.4c-0.3,0.3-1.1,1.2-2.3,2.7
		c-1.2,1.5-2.1,2.5-2.8,2.9L49.1,67l-0.4-0.4c-0.9,0.2-1.6,0.1-2.1-0.6c-0.5-0.6-0.7-1.2-0.6-1.9V64c0.2-0.7,0.9-2,2.1-3.9
		c1.2-1.9,1.9-3.3,2-4.2c6.3-13.7,11-24.8,14-33.1c0.3-1,0.5-1.6,0.5-1.8c0-1.4-0.8-2.1-2.5-2.1c-1.7,0-3.2,0.7-4.3,2.1
		c-9.6,6.5-18.7,16.2-27.4,29.3C25.8,59.9,19.2,71.9,10.8,86.4 M9,85.5c-0.5-0.2-0.9-0.4-1.3-0.9c0.2,0.1,0.4,0.2,0.7,0.4
		C8.6,85.3,8.8,85.4,9,85.5 M24,55.2c-1.7,2.9-6.8,11.9-15.3,27.2c0.1-0.2,0.4-0.7,1-1.5c0.6-0.9,1-1.5,1.2-2
		c0.9-1.7,2.9-5.3,6.1-10.9C20.1,62.5,22.5,58.2,24,55.2 M11,83.8c-0.1,0.2-0.2,0.4-0.4,0.7c-0.2,0.3-0.3,0.6-0.4,0.7
		c0.5-0.3,1.1-1.2,1.7-2.5c0.7-1.3,1.1-2.2,1.3-2.5c4.8-8.5,8.8-15.7,11.9-21.6c-3.3,5.4-7.9,13.7-14,24.8c0.1-0.1,0.2-0.2,0.2-0.4
		c0.1-0.2,0.1-0.3,0.1-0.4c-0.2,0.2-0.4,0.5-0.6,1c-0.2,0.5-0.4,0.8-0.5,1C10.8,84.2,11,84,11,83.8 M35.2,8.5c-2.5,1.1-5.2,2.8-8,5
		c-2.8,2.2-4.8,3.9-6.1,5.2c-1.2,1.2-3.4,3.5-6.6,6.9c-0.3,0.3-0.8,0.9-1.3,1.6c-0.6,0.7-1.1,1.4-1.5,1.9c-0.5,0.5-0.7,0.8-0.7,0.9
		c0.2-0.3,0.7-0.9,1.5-1.7C20.7,19,27.9,12.7,34,9.3C34.6,8.8,35.1,8.5,35.2,8.5 M27.7,50.2c-0.2,0.3-1.1,2-2.7,4.9
		C26.4,52.7,27.3,51.1,27.7,50.2 M28,52c-1.2,1.9-1.8,2.9-1.7,2.9C26.8,54.2,27.4,53.2,28,52 M28.5,48.5c-0.5,0.7-0.7,1.1-0.7,1.2
		c0.1-0.2,0.2-0.4,0.4-0.6C28.3,48.8,28.4,48.6,28.5,48.5 M30.1,48.8l-1.5,2.6c0.1-0.2,0.2-0.4,0.4-0.7c0.2-0.3,0.4-0.6,0.6-0.9
		C29.7,49.5,29.9,49.1,30.1,48.8 M31.5,44.7c-0.4,0.5-1,1.6-1.8,3.3C30,47.5,30.6,46.4,31.5,44.7 M32.6,42.3c-0.7,1-1.1,1.8-1.4,2.3
		C31.9,43.7,32.4,42.9,32.6,42.3 M33,42.6c-0.6,0.8-1,1.6-1.4,2.5C32.2,44.2,32.7,43.4,33,42.6 M34,40.5c-0.4,0.6-0.7,1.1-1,1.7
		C33.4,41.6,33.7,41.1,34,40.5 M40,7c-1.3,0-2.5,0.3-3.6,1c1.5-0.5,2.6-0.7,3.4-0.7c2.6,0,3.9,1,3.9,3.1c0,0.7-0.2,1.5-0.6,2.6
		c-2,7.6-5.2,16.4-9.4,26.3c0.1-0.1,0.2-0.2,0.3-0.4c0.1-0.2,0.2-0.3,0.3-0.4c4-9.2,7.2-18.1,9.4-26.6C44,11,44,10.5,44,10.2
		C44,8,42.7,7,40,7 M40.6,6.6c-2.3-0.2-4.3,0.3-6,1.6C36.3,7.4,38.3,6.9,40.6,6.6 M62.5,15.7c-0.9,0-1.8,0.3-2.7,0.9
		c-8.5,5-16.4,12-23.6,21.1c-0.1,0.1-0.2,0.2-0.2,0.4c-0.1,0.2-0.1,0.3-0.1,0.4c5-6.3,10.2-11.6,15.7-16c4-3,6.6-4.8,7.7-5.4
		c-0.5,0.3-0.8,0.6-1,0.9c-7.9,5-15.5,12.1-22.8,21.3c-0.2,0.4-0.4,0.8-0.6,1.2c4.9-6.5,10.3-12.1,16.1-16.8c5.4-4.1,9-6.5,10.9-7.1
		c0.2,0,0.3,0,0.6-0.1c0.2,0,0.3-0.1,0.4-0.1c2.4,0,3.6,1.6,3.6,4.8c0,1.5-0.3,2.8-1,3.9C60.8,37,56.1,48,51.3,58.3
		c0.1-0.2,0.2-0.4,0.4-0.6c0.2-0.2,0.3-0.4,0.4-0.6c6.5-13.7,11.2-25,14.2-33.7c0.3-0.6,0.5-1.2,0.5-1.8c0,1.8-0.3,3.2-1,4.3
		c-3.9,10.1-8.1,20-12.6,29.7l0.7-1.1c5.1-11,9.3-21.1,12.8-30.6c0.4-1,0.6-1.8,0.6-2.5c0-1.5-0.5-2.8-1.5-3.9
		C64.9,16.3,63.8,15.7,62.5,15.7 M43.3,7.6c0.6,0.7,0.9,1.6,0.9,2.8c0,1.3-0.3,2.6-0.9,3.9c-2,7.4-4.8,15.1-8.2,23.1l0.1-0.2
		c0.1-0.2,0.2-0.2,0.2-0.2c3.8-9.1,6.7-17.4,8.7-25c0.2-0.8,0.2-1.4,0.2-1.7C44.4,9.2,44,8.3,43.3,7.6 M46.3,28.9
		c-2.3,2.1-5,5.2-8.1,9.1c0.6-0.7,1.5-1.7,2.9-3.3c1.3-1.5,2.6-2.8,3.6-4C45.7,29.6,46.3,29,46.3,28.9 M49.4,63.1
		c-0.9,0.9-1.5,1.8-1.8,2.6h0.1L49.4,63.1z M49.9,61.5c-0.3,0.3-0.6,0.8-0.9,1.4C49.4,62.6,49.7,62.1,49.9,61.5 M50.2,62.2
		c-0.2,0.3-0.5,0.7-0.6,1c0.1-0.1,0.2-0.2,0.3-0.5C50,62.4,50.1,62.3,50.2,62.2 M51,60.5c-0.2,0.2-0.5,0.7-0.9,1.3
		c0.1-0.1,0.2-0.2,0.3-0.4c0.1-0.2,0.2-0.3,0.3-0.6C50.9,60.7,51,60.6,51,60.5 M62,45.8c-2.2,2.8-4.4,6-6.6,9.7
		c-0.2,0.2-0.6,0.8-1.3,1.8c-0.7,0.9-1.2,1.7-1.4,2.3c2-2.4,3.4-4.3,4-5.8C58,51.4,59.8,48.8,62,45.8 M54.7,55.2
		c-0.1,0.1-0.2,0.3-0.3,0.6c-0.1,0.3-0.2,0.5-0.3,0.6c0.3-0.5,0.8-1.2,1.5-2.3c0.7-1,1.2-1.8,1.5-2.3C55.6,53.9,54.8,55,54.7,55.2
		 M61.1,16.3c-0.8,0.3-1.4,0.6-1.8,0.9C59.8,16.8,60.4,16.5,61.1,16.3 M61.4,16.2c-0.1,0.1-0.2,0.1-0.2,0.1
		C61.2,16.3,61.3,16.3,61.4,16.2 M61.4,16.2c0.7-0.2,1.1-0.2,1.5-0.2c2.2,0,3.6,1.4,4,4.3c-0.2-1.1-0.7-2.1-1.7-2.9
		c-0.9-0.8-2-1.2-3.1-1.2h-0.4H61.4z M65,19.1c0.2,0.7,0.2,1.3,0.2,1.8c0,2.2-0.5,4.1-1.6,5.8c1.1-1,1.7-2.7,1.7-5.2
		C65.4,20.7,65.3,19.9,65,19.1 M64.4,18.1c0.1,0.1,0.2,0.2,0.2,0.4C64.6,18.4,64.5,18.2,64.4,18.1 M69.2,36.7
		c-0.1,0.1-0.2,0.2-0.2,0.2C69,36.8,69.1,36.8,69.2,36.7 M74,30.4l0.5-0.5C74.3,30,74.2,30.2,74,30.4"/>
	<path class="st0" d="M218.6,81c-0.1-0.1-0.3-0.2-0.7-0.4c-0.4-0.2-0.6-0.3-0.7-0.4c-0.1-0.1-0.2-0.2-0.5-0.4
		c-0.2-0.2-0.4-0.2-0.6-0.2c-0.1,0-0.2-0.1-0.4-0.2l0.1-0.2c-0.1-0.2,0-0.8,0.4-1.6c-0.2,0.6-0.6,1.1-1,1.6c-0.1,0-0.2-0.1-0.4-0.2
		c-0.2-0.2-0.3-0.2-0.4-0.2c1.1-1.9,2.8-4.9,5.1-9.1c2.3-4.2,4.2-7.5,5.5-10c1.4-2.5,3-5.4,5.1-8.8c2-3.4,4-6.5,5.9-9.3
		c6.5-13.6,11.1-25.5,13.7-35.8c-0.1-1.4-0.8-2.1-2.1-2.1c-0.7,0-1.5,0.2-2.5,0.6c-1,0.4-2,0.9-3,1.5c-1,0.6-1.7,0.9-2,1.1
		c-6.1,4.1-12.6,10.2-19.5,18.3c-6.1,7.4-9.6,15.5-10.4,24.2c-0.7,1.5-1,2.8-1,3.9c0,1.9,0.7,3.2,2,4c-2.3-0.3-3.4-2.5-3.4-6.4v-4
		c1-11.3,7.9-22.9,20.9-34.8c7.8-7.3,14.5-11.2,20.1-11.8c2.9,0.1,4.3,1.8,4.3,5.2c0,1.1-0.3,2.5-1,4.2c-1.6,5.8-3.8,12.4-6.7,19.8
		c3.1-3.7,6.1-6.8,8.8-9.3c6.1-5.2,11-8.6,14.6-10.2c0.6-0.2,1.2-0.4,1.8-0.4c1.6,0,3,0.7,4,2.1c1,1.4,1.5,3,1.5,4.8
		c0,1.1-0.2,2.2-0.7,3.2c-2.5,6.9-5.8,14.7-9.7,23.6c2.3-3.5,4.2-6.2,5.6-8c8.8-11,18-19.4,27.9-25.3c1.6-1.4,3.5-2.1,5.9-2.1
		c3.2,0,4.8,1.3,4.8,4.1c0,0.2-0.1,0.7-0.2,1.3c-0.3,2.2-1,4.4-1.9,6.5c-0.9,2.1-2.3,4.6-4,7.5c-1.8,2.9-2.9,4.8-3.5,5.9
		c-0.4,0.7-2.6,4.6-6.6,11.5c-4,6.9-7,12.2-9,15.9c-0.2,0.5-1.4,2.5-3.6,6.1c-2.2,3.6-3.3,6.5-3.3,8.7c0,1.8,0.5,3.4,1.5,4.8
		c1,1.4,2.3,2.3,4,2.6c0.2,0.1,0.4,0.2,0.4,0.4c0,0.1-0.1,0.1-0.4,0.1c-1.1,0-2.5-0.4-4.4-1.2c0.2,0.2,0.5,0.5,0.9,0.8
		c0.3,0.3,0.6,0.6,0.7,0.8l0.4,0.2c0,0.1-0.6-0.2-1.8-0.7c-3-1.8-4.5-4.7-4.5-8.7c0-2.3,0.5-4.4,1.6-6.4l19.9-34.6
		c0.5-1,1.5-2.8,3.1-5.5s2.9-5,3.9-6.9c1-1.9,1.8-3.9,2.6-5.8c0.4-1,0.6-1.7,0.6-2.1c0-1.1-0.4-1.6-1.3-1.6c-0.7,0-1.3,0.3-2.1,1
		c-7.1,3.8-15.1,10.4-23.8,20c-2,2-3.8,4.4-5.6,6.9c-1.8,2.6-3.8,5.5-5.9,8.7c-2.1,3.2-3.8,5.7-5,7.4c-0.3,0.3-1.1,1.2-2.3,2.7
		c-1.2,1.5-2.1,2.5-2.8,2.9l-0.4,0.7l-0.4-0.4c-0.9,0.2-1.6,0.1-2.1-0.6c-0.5-0.6-0.7-1.2-0.6-1.9v-0.1c0.2-0.7,0.9-2,2.1-3.9
		c1.2-1.9,1.9-3.3,2-4.2c6.3-13.7,11-24.8,14-33.1c0.3-1,0.5-1.6,0.5-1.8c0-1.4-0.8-2.1-2.5-2.1c-1.7,0-3.1,0.7-4.3,2.1
		c-9.6,6.5-18.7,16.2-27.4,29.3C233.5,54.5,227,66.5,218.6,81 M216.7,80.1c-0.5-0.2-0.9-0.5-1.3-0.9c0.2,0.1,0.4,0.2,0.7,0.4
		C216.3,79.9,216.6,80,216.7,80.1 M231.8,49.8c-1.7,2.9-6.8,11.9-15.3,27.2c0.1-0.2,0.4-0.7,1-1.5c0.6-0.9,1-1.5,1.2-2
		c0.9-1.7,2.9-5.3,6.1-10.9C227.9,57.1,230.3,52.8,231.8,49.8 M218.8,78.4c-0.1,0.2-0.2,0.4-0.4,0.7c-0.2,0.3-0.3,0.6-0.4,0.7
		c0.5-0.3,1.1-1.2,1.7-2.5c0.7-1.4,1.1-2.2,1.3-2.5c4.8-8.5,8.8-15.7,11.9-21.6c-3.3,5.4-7.9,13.7-14,24.8c0.1-0.1,0.2-0.2,0.2-0.4
		c0.1-0.2,0.1-0.3,0.1-0.4c-0.2,0.2-0.4,0.5-0.6,1c-0.2,0.5-0.4,0.8-0.5,1C218.5,78.8,218.7,78.6,218.8,78.4 M243,3.1
		c-2.5,1.1-5.2,2.8-8,5c-2.8,2.2-4.8,3.9-6.1,5.2c-1.2,1.2-3.4,3.5-6.6,6.9c-0.3,0.3-0.8,0.9-1.4,1.6c-0.6,0.7-1.1,1.4-1.5,1.9
		c-0.4,0.5-0.7,0.8-0.7,0.9c0.2-0.3,0.7-0.9,1.5-1.7c8.3-9.2,15.5-15.5,21.6-18.9C242.4,3.4,242.8,3.2,243,3.1 M235.5,44.8
		c-0.2,0.3-1.1,2-2.7,4.9C234.2,47.3,235.1,45.7,235.5,44.8 M235.7,46.6c-1.2,1.9-1.8,2.9-1.7,2.9C234.6,48.8,235.2,47.9,235.7,46.6
		 M236.2,43.1c-0.5,0.7-0.7,1.1-0.7,1.2c0.1-0.2,0.2-0.4,0.4-0.6C236,43.4,236.2,43.2,236.2,43.1 M237.8,43.4l-1.5,2.6
		c0.1-0.2,0.2-0.4,0.4-0.7c0.2-0.3,0.4-0.6,0.6-0.9C237.5,44.1,237.7,43.8,237.8,43.4 M239.3,39.3c-0.4,0.5-1,1.6-1.8,3.3
		C237.8,42.1,238.4,41,239.3,39.3 M240.4,36.9c-0.7,1-1.1,1.8-1.4,2.3C239.7,38.3,240.2,37.5,240.4,36.9 M240.8,37.2
		c-0.6,0.8-1,1.6-1.3,2.5C240,38.8,240.5,38,240.8,37.2 M241.8,35.1c-0.4,0.6-0.7,1.1-1,1.7C241.2,36.2,241.5,35.7,241.8,35.1
		 M247.8,1.6c-1.3,0-2.5,0.3-3.6,1c1.5-0.5,2.6-0.7,3.4-0.7c2.6,0,3.9,1,3.9,3.1c0,0.7-0.2,1.5-0.6,2.6c-2,7.6-5.2,16.4-9.4,26.3
		c0.1-0.1,0.2-0.2,0.3-0.4c0.1-0.2,0.2-0.3,0.3-0.4c4-9.2,7.2-18.1,9.4-26.6c0.2-0.7,0.2-1.1,0.2-1.5C251.8,2.7,250.5,1.6,247.8,1.6
		 M248.4,1.2c-2.3-0.2-4.3,0.3-6,1.6C244.1,2,246.1,1.5,248.4,1.2 M270.2,10.3c-0.9,0-1.8,0.3-2.7,0.9c-8.5,5-16.4,12-23.6,21.1
		c-0.1,0.1-0.2,0.2-0.2,0.4c-0.1,0.2-0.1,0.3-0.1,0.4c5-6.3,10.2-11.6,15.7-16c4-3,6.6-4.8,7.7-5.4c-0.5,0.3-0.8,0.6-1,0.9
		c-7.9,5-15.5,12.1-22.8,21.3c-0.2,0.4-0.4,0.8-0.6,1.2c4.9-6.5,10.3-12.1,16.1-16.8c5.4-4.1,9-6.5,10.9-7.1c0.2,0,0.3,0,0.6-0.1
		c0.2,0,0.3-0.1,0.4-0.1c2.4,0,3.6,1.6,3.6,4.8c0,1.5-0.3,2.8-1,3.9c-4.6,11.8-9.3,22.8-14.1,33c0.1-0.2,0.2-0.4,0.4-0.6
		c0.2-0.2,0.3-0.4,0.4-0.6c6.5-13.7,11.2-25,14.2-33.7c0.3-0.6,0.5-1.2,0.5-1.8c0,1.8-0.3,3.2-1,4.3c-3.9,10.1-8.1,20-12.6,29.7
		l0.7-1.1c5.1-11,9.3-21.1,12.8-30.6c0.4-1,0.6-1.8,0.6-2.5c0-1.5-0.5-2.8-1.5-3.9C272.7,10.9,271.5,10.3,270.2,10.3 M251.1,2.2
		c0.6,0.7,0.9,1.6,0.9,2.8c0,1.3-0.3,2.6-0.9,3.9c-2,7.4-4.8,15.1-8.2,23.1l0.1-0.2c0.1-0.2,0.2-0.2,0.2-0.2
		c3.8-9.1,6.7-17.4,8.7-25c0.2-0.8,0.2-1.4,0.2-1.7C252.2,3.8,251.8,2.9,251.1,2.2 M254,23.6c-2.3,2.1-5,5.2-8.1,9.1
		c0.6-0.7,1.5-1.7,2.9-3.3c1.4-1.5,2.6-2.8,3.6-4C253.5,24.3,254,23.6,254,23.6 M257.2,57.7c-0.9,0.9-1.5,1.8-1.8,2.6h0.1
		L257.2,57.7z M257.7,56.1c-0.3,0.3-0.6,0.8-0.9,1.4C257.2,57.2,257.5,56.7,257.7,56.1 M258,56.8c-0.2,0.3-0.5,0.7-0.6,1
		c0.1-0.1,0.2-0.2,0.3-0.5C257.8,57.1,257.9,56.9,258,56.8 M258.8,55.1c-0.2,0.2-0.5,0.7-0.9,1.3c0.1-0.1,0.2-0.2,0.3-0.4
		c0.1-0.2,0.2-0.3,0.3-0.6C258.7,55.3,258.7,55.2,258.8,55.1 M269.7,40.4c-2.2,2.8-4.4,6-6.6,9.7c-0.2,0.2-0.6,0.8-1.3,1.8
		c-0.7,0.9-1.2,1.7-1.4,2.3c2-2.4,3.4-4.3,4-5.8C265.8,46.1,267.5,43.4,269.7,40.4 M262.5,49.8c-0.1,0.1-0.2,0.3-0.3,0.6
		c-0.1,0.3-0.2,0.5-0.3,0.6c0.3-0.5,0.8-1.2,1.5-2.3c0.7-1,1.2-1.8,1.5-2.3C263.4,48.5,262.6,49.6,262.5,49.8 M268.9,10.9
		c-0.8,0.3-1.4,0.6-1.8,0.9C267.6,11.4,268.2,11.1,268.9,10.9 M269.1,10.8c-0.1,0.1-0.2,0.1-0.2,0.1C269,10.9,269,10.9,269.1,10.8
		 M269.1,10.8c0.7-0.2,1.1-0.2,1.5-0.2c2.2,0,3.6,1.4,4,4.3c-0.2-1.1-0.7-2.1-1.7-2.9c-0.9-0.8-2-1.2-3.1-1.2h-0.4H269.1z
		 M272.8,13.7c0.2,0.7,0.2,1.3,0.2,1.8c0,2.2-0.5,4.1-1.6,5.8c1.1-1,1.7-2.7,1.7-5.2C273.2,15.3,273,14.5,272.8,13.7 M272.2,12.8
		c0.1,0.1,0.2,0.2,0.2,0.4C272.4,13,272.3,12.8,272.2,12.8 M277,31.3c-0.1,0.1-0.2,0.2-0.2,0.2C276.8,31.5,276.9,31.4,277,31.3
		 M281.8,25l0.5-0.5C282.1,24.6,281.9,24.8,281.8,25"/>
	<path class="st0" d="M369,47.6c2.3-2.9,4.2-5.1,5.7-6.7c1.5-1.6,3.7-3.3,6.6-5.1c2.9-1.8,5.8-2.6,8.6-2.6c1.6,0,3,0.6,4,1.8
		c1,1.2,1.5,2.6,1.5,4.1c0,1.6-0.9,3.8-2.6,6.5c0.7-0.3,1.7-0.8,3.1-1.4c1.4-0.6,2.5-1.1,3.2-1.4c6.1-2.5,10.1-3.8,12.3-4.1
		c0.1,0.1,0.1,0.2,0.1,0.4c0,0.4-0.6,1-1.9,1.8c-1.3,0.8-1.9,1.3-2,1.3c-2,1.2-4.8,2.9-8.6,5c-3.8,2.1-6.1,3.3-6.8,3.7
		c-3.5,1.8-5.5,2.8-6,2.9c-5.2,5.6-9.8,8.3-14,8.3c-2.8,0-4.9-1.1-6.3-3.3c-5.6,14.6-10.1,25.1-13.6,31.3c-1.7,2.9-4.1,4.4-7.2,4.4
		h-0.7c-0.7-0.9-1-1.9-1-3.1c0-1.5,0.5-3.4,1.6-5.6c4.6-10.3,10.9-20.9,18.9-31.7c2.2-6.7,4.2-11.1,6-13.1c0.4-0.8,0.7-1.3,0.7-1.5
		c0.2-0.2,0.2,0.1,0,1.1C370.2,42.2,369.7,44.5,369,47.6 M361.3,61.9c-4.1,5.8-7.3,10.9-9.6,15.3c-3.3,6.3-5.2,10.5-5.6,12.5
		c-0.1,0.2-0.1,0.5-0.1,0.9c0,0.7,0.2,1.1,0.7,1.1c0.7,0,1.6-0.5,2.6-1.5c1-1,1.6-1.8,1.8-2.6c0.1-0.2,0.4-0.9,0.9-1.9
		c0.5-1,0.9-1.9,1.2-2.6c0.3-0.7,0.4-1,0.3-1c-0.1,0.2-0.7,1.4-2,3.7c-1.2,2.3-2.4,3.9-3.6,4.6c-0.2,0.1-0.5,0.1-0.9,0.1
		c-0.5,0-0.7-0.3-0.7-0.9c0-1.1,0.7-2.9,2.1-5.4c3-6.4,7.1-13.3,12.3-20.9C361,63.3,361.1,62.8,361.3,61.9 M346.6,85.7
		c-0.4,0.5-0.5,0.8-0.4,0.9C346.4,86.4,346.5,86.1,346.6,85.7 M359.9,62.1c-0.7,1-1.2,1.7-1.5,2.1c-0.2,0.2-0.4,0.7-0.8,1.2
		c-0.4,0.6-0.7,1.1-1,1.5c-0.3,0.4-0.5,0.6-0.6,0.6c-0.1,0-0.1,0-0.1-0.1c-2.5,3.4-3.6,5.4-3.6,6c-0.6,1.4-1.6,3.4-2.9,6.1
		c-1.4,2.7-2.3,4.6-2.8,5.8l0.1,0.1c4.1-8.5,8.9-16.7,14.4-24.5l0.1-0.5C361.1,60.5,360.7,61.1,359.9,62.1 M360.3,64.9
		c-5.7,8.6-10,16.3-12.9,23.2c-0.1,0.2-0.1,0.5-0.1,0.9c0,0.5,0.2,0.7,0.5,0.7c0.5,0,1.1-0.4,1.9-1.3c0.8-0.9,1.2-1.6,1.4-2.3
		C354.3,80.3,357.4,73.2,360.3,64.9 M360.8,66c-2,4.2-3.8,8.3-5.2,12.3C357.5,74.5,359.2,70.4,360.8,66 M366.4,57.4v0.2
		c1.1,2.4,3,3.6,5.8,3.6C369.3,61,367.3,59.8,366.4,57.4 M383.4,51.8c-5.7,2.5-11.2,3.8-16.3,4.2h-0.1v0.1c5.1-0.2,10.4-1.5,16-3.8
		L383.4,51.8z M392.2,39c0-1.3-0.8-2.1-2.5-2.5c-1.6-0.4-3-0.1-4,0.7c-1.9,0.7-3.8,1.9-5.6,3.4c-1.9,1.5-3.3,2.7-4.1,3.7
		c-0.9,0.9-2.3,2.8-4.4,5.5c-2.1,2.7-3.3,4.3-3.6,4.7c0,0.1,0,0.2-0.1,0.2c-0.1,0.1-0.2,0.2-0.2,0.2c6.5-0.3,12.6-2.2,18.5-5.8
		c2.2-2.5,4-5.2,5.5-8.1C392,40.1,392.2,39.5,392.2,39 M389.1,35.9c2.3,0,3.4,0.9,3.4,2.8c0,1.1-0.2,2.1-0.7,3.1
		c-0.5,1-1.2,2.1-2.2,3.5c-1,1.4-1.6,2.2-1.8,2.6l-0.2,0.2l0.1-0.1h0.1c0.1-0.2,0.4-0.6,0.9-1.2c0.5-0.7,0.9-1.1,1-1.3
		c0.2-0.2,0.4-0.6,0.9-1.2c0.4-0.6,0.7-1,0.9-1.4c0.2-0.4,0.4-0.8,0.6-1.3c0.2-0.5,0.4-1.1,0.6-1.6c0.1-0.5,0.2-1,0.2-1.5
		c-0.1-1.9-1.3-2.8-3.7-2.8c-0.8,0-1.6,0.1-2.3,0.4c-0.8,0.2-1.6,0.5-2.4,0.9c-0.8,0.3-1.6,0.8-2.4,1.3c-0.8,0.5-1.5,1-2.1,1.3
		c-0.6,0.4-1.2,0.9-2,1.7c-0.8,0.8-1.4,1.3-1.8,1.7c-0.4,0.4-1,1-1.8,2c-0.8,1-1.3,1.6-1.6,1.8c-0.2,0.2-0.8,0.9-1.7,2.1
		c-0.9,1.1-1.4,1.8-1.6,2c-0.9,1.2-1.4,2.1-1.5,2.7c0.2-0.2,0.7-0.9,1.6-2.1c0.9-1.1,1.5-1.9,1.7-2.2c0.2-0.3,0.8-1,1.6-2
		c0.8-1,1.4-1.8,1.8-2.2c0.4-0.4,1-1.1,1.7-1.9c0.7-0.8,1.4-1.5,2-2c0.6-0.5,1.2-1,2-1.6c0.8-0.6,1.5-1.1,2.3-1.6
		C385.4,36.6,387.6,35.9,389.1,35.9 M373.2,44.1c-1.9,2-3.4,3.8-4.5,5.4v0.2l-0.1,0.2C370.7,47.4,372.3,45.5,373.2,44.1 M376.1,57.4
		c-2.1,0.5-3.7,0.8-4.8,1c0.2,0.1,0.6,0.1,1.1,0.1C373.4,58.5,374.7,58.1,376.1,57.4 M389.3,34.2c-1.8,0-3.8,0.6-6.1,1.7
		c-2.6,1.3-4.9,2.9-6.7,4.8c5-4.2,9.4-6.3,13.1-6.3c0.2,0,0.4,0,0.6,0.1c0.2,0,0.5,0.1,0.6,0.1h0.1c0.4,0,0.9,0.2,1.4,0.6
		c0.5,0.4,0.9,0.8,1.2,1.2l0.5,0.6c-0.2-0.2-0.4-0.7-0.7-1.2C392.2,34.7,390.9,34.2,389.3,34.2"/>
	<path class="st0" d="M346.3,36.4c-1.2,4.9-2.5,8.8-3.9,11.8c-2.5,5.8-3.9,9.3-4.2,10.6c0.2,0.1,0.4,0,0.7-0.2
		c0.3-0.2,0.6-0.6,1-0.9c0.4-0.4,0.6-0.6,0.7-0.7l7.9-7.9c0.8-0.9,2.1-2,3.8-3.4c1.7-1.4,2.8-2.3,3.3-2.8c1.9-1.1,3.8-2.5,5.8-3.9
		c1.1-1.4,2.8-2.1,5.3-2.1h0.2c1.2,0,2.4,0.4,3.4,1.1c1.1,0.7,1.7,1.7,2,2.8c0.1,0.4,0,0.7-0.2,0.9c-0.2,0.2-0.5,0.2-0.9,0.2
		c-0.4,0-0.8-0.1-1.2-0.2c-0.4-0.1-0.8-0.2-1.3-0.4c-0.5-0.1-0.8-0.2-1-0.2c-0.7,0-1.5,0.2-2.3,0.6c-2.9,1.3-6.5,3.6-10.9,7
		c-2,1.5-4.6,3.8-7.9,7c-3.3,3.2-5.6,5.4-6.9,6.5c-0.7,0.6-2.7,1.8-5.8,3.8c0.2-4.2,1-8.1,2.6-11.9c0.3-0.8,1.2-2.8,2.6-6
		c1.4-3.1,2.4-5.6,2.9-7.4c-0.9,0.2-1.9,0.5-2.9,0.9c-1.1,0.5-1.9,0.8-2.5,1.2c-0.6,0.3-1.5,0.9-2.8,1.7c-1.3,0.8-2.1,1.2-2.5,1.4
		c-0.3,0-0.7,0.5-1.2,1.3c-0.2,0.2-0.3,0.1-0.4-0.4c-0.1-0.1-0.1-0.2-0.1-0.4c0-1,0.9-2.8,2.7-5.4C335,39.5,339.6,38,346.3,36.4
		 M342.4,41.2l-0.4,0.7c-0.2,0.4-0.5,1.4-1,2.9c-0.5,1.5-1,2.6-1.4,3.4c-3,5.2-4.7,10.9-5,16.9c2.7-1.6,5.8-4,9.2-7.5
		c0.2-0.2,1-1,2.3-2.2c1.3-1.2,2.3-2.2,2.9-2.9l0.1-0.4c-1,0.8-2.4,2.2-4.2,4c-1.8,1.9-3.6,3.5-5.2,4.8c-1.6,1.3-3.2,2.4-4.8,3.3
		c-0.1-2.7,0.8-6.3,2.6-10.7c0.4-1,1.2-2.7,2.3-5.2c1.1-2.5,2-4.4,2.5-5.8c0.1-0.2,0.1-0.4,0.2-0.6c0-0.2,0.1-0.4,0.1-0.6
		C342.5,41.3,342.5,41.2,342.4,41.2 M336.2,60.9c-0.1-0.4-0.1-0.6,0-0.6c-0.3,0.6-0.4,1-0.2,1.4L336.2,60.9z M340.7,48.5
		c-2.1,3.8-3.6,7.2-4.4,10.4c0.2,0.1,0.4-0.1,0.6-0.6c0-0.2,0-0.4,0.1-0.7c0.4-0.8,0.7-1.2,0.9-1.2c0.7-1.1,1-2.2,1-3.6
		c0.2-0.4,0.5-1.1,0.9-2.1C340.2,49.8,340.5,49,340.7,48.5 M336.8,61.2c0,0.5,0.3,0.5,1,0c0.2-0.2,0.4-0.5,0.5-0.7h-0.1
		c-0.1,0-0.2,0.1-0.5,0.2c-0.2,0.2-0.3,0.3-0.5,0.3C337,61,336.9,61.1,336.8,61.2 M342.7,39.6c-0.3,0-0.8,0.1-1.3,0.2
		c-0.6,0.2-1.1,0.3-1.5,0.6c-0.4,0.2-0.6,0.4-0.6,0.4c0.1,0,1.3-0.4,3.8-1.1h-0.1L342.7,39.6z M344.3,54.9c-0.3,0.2-1.1,0.9-2.3,2.1
		c-1.5,1.5-2.4,2.3-2.7,2.6c0.8-0.5,2.4-1.9,4.7-4.2L344.3,54.9z M364.6,38.5c-2,0.8-5.2,2.8-9.4,6l-1.6,1.2l0.7-0.5
		c4.8-3.4,8.3-5.6,10.3-6.6V38.5z"/>
	<path class="st0" d="M134.4,78.5c-2,0-3.5-0.8-4.5-2.5c-0.9-1.7-1.4-3.6-1.4-5.8c0-1.3,0.1-2.2,0.2-2.8c1.1-9.6,5.4-20.9,13.1-33.7
		c-11.2,3.6-19,5.9-23.4,7c-1,0.2-2.5,0.5-4.4,1.1c-2,0.6-3.7,1-5.3,1.3c-1.6,0.3-3,0.4-4.4,0.4c-0.2,0-0.4,0-0.8-0.1
		c-0.4,0-0.6-0.1-0.8-0.1c-1.1,0-2.1-0.5-3.1-1.5c-1-1-1.5-2.1-1.5-3.1c0-0.8,0.5-1.5,1.3-2l0.1,0.1l0.1,0.1c0,0.2,0.1,0.5,0.4,0.8
		c0.3,0.3,0.5,0.6,0.6,0.9c1.4,1,3.1,1.5,5,1.5c1.2,0,3.3-0.4,6.3-1.1c5.9-1.5,16.7-4.7,32.5-9.7c0.3-0.5,0.8-1.3,1.5-2.5
		c0.7-1.1,1.2-2,1.5-2.5c0.2-0.2,0.4-0.7,0.8-1.3c0.4-0.7,0.7-1.2,1-1.6c0.3-0.4,0.7-0.9,1.1-1.5c0.4-0.6,0.9-1.1,1.3-1.3
		c0.4-0.3,0.9-0.5,1.3-0.7c0.5-0.2,1-0.2,1.5-0.1c0.5,0.1,1.1,0.4,1.7,0.8c-0.6,0.4-1.2,1.1-2,2c-0.7,0.9-1.6,2.1-2.6,3.5
		c-1,1.4-1.7,2.4-2.2,3.1c0,0.1-0.1,0.2-0.2,0.4c-0.2,0.2-0.2,0.3-0.2,0.4c11-3.4,20-5.7,26.7-7c1.7-0.3,6.7-0.9,14.8-1.7
		c1.1-0.2,2.4-0.4,4-0.4c4.2,0,6.4,1.3,6.7,4c-0.1,1.2-1.2,1.8-3.4,1.8c-1.1,0-1.7-0.3-1.7-0.9c0-0.2,0.1-0.3,0.2-0.5h-2.2
		c-0.7,0-1.9,0-3.4,0.1c-1.5,0-2.6,0.1-3.4,0.1H187c-10.5,0.6-24,3.5-40.7,8.7c-8.8,14.2-13.5,26.8-14.4,37.7
		c-0.2,0.7-0.2,1.1-0.2,1.2c0,1.1,0.4,2.1,1.1,2.8c0.7,0.7,1.6,1.1,2.7,1.1c1.5,0,2.7-0.6,3.8-1.8c6-4.3,9.9-7.2,11.7-9
		c1.5-2,4.9-4.4,10.3-7.1c0.6-0.3,1-0.5,1.3-0.5c0.3,0,0.5,0.2,0.5,0.6c0,0.7-0.3,1.4-1,2.2c-2.6,3.1-7.5,7.3-14.6,12.5
		c-0.7,0.4-2,1.3-3.8,2.6c-1.8,1.3-3.4,2.3-4.8,3C137.4,78.2,135.9,78.5,134.4,78.5 M114.7,40.9c-0.5,0-1.2,0.1-2.2,0.4
		c-1,0.2-1.8,0.5-2.6,0.6c-0.7,0.2-1.1,0.3-1.1,0.4C111.1,42.2,113.1,41.8,114.7,40.9 M142.4,32.5c-2.9,0.9-7.2,2.2-12.9,3.9
		c-5.7,1.7-10,3-12.9,3.9c1.6-0.2,3.9-0.7,6.8-1.6c2.9-0.9,4.9-1.5,6-1.7c0.7-0.2,4.9-1.5,12.6-4c0-0.1,0-0.2,0.1-0.2
		C142.3,32.7,142.4,32.6,142.4,32.5 M141.1,32.1c-4.6,0.9-8.2,2-10.9,3.2c-2.1,0.7-3.4,1.1-3.7,1.2C132.7,35,137.6,33.5,141.1,32.1
		 M129.1,70.6c0,2,0.4,3.7,1.3,5.2c0.9,1.5,2.1,2.2,3.7,2.2c0.6,0,1,0,1.2-0.1h-0.6c-1.7,0-3.1-0.7-4.1-2.1c-1-1.4-1.5-3.1-1.5-5
		c0-0.7,0-1.3,0.1-1.6c0.8-8.3,3.4-16.7,7.7-25.2c0.3-0.8,1-2.1,2-3.8c1-1.7,1.8-3.2,2.5-4.4c0.7-1.2,1-2,0.8-2.2
		c-4.6,7.9-7.7,13.9-9.3,18.2C130.4,59.2,129.1,65.5,129.1,70.6 M131.2,65.4c-0.4,1-0.6,2.6-0.6,4.9c0,1.7,0.2,2.7,0.5,3.1
		c-0.2-0.7-0.2-1.7-0.2-3.1C130.8,68.7,130.9,67,131.2,65.4 M132.5,59c-0.7,1.1-1,2.3-1,3.7l0.1,0.1c0.1,0,0.2-0.6,0.5-1.7
		C132.4,60.1,132.5,59.3,132.5,59 M132.8,55.8c-0.2,0.3-0.3,0.7-0.4,1c-0.1,0.3-0.1,0.6-0.1,0.7v0.2
		C132.3,57.8,132.5,57.1,132.8,55.8 M139,41.7c-2.7,4.3-4.6,8.6-5.6,12.8c2.3-4.7,3.7-7.9,4.2-9.6c0.1-0.2,0.3-0.6,0.7-1.4
		C138.7,42.7,138.9,42.1,139,41.7 M154.2,62.8c-2,1.7-6,4.9-12,9.4C147.8,68.5,151.8,65.4,154.2,62.8 M143.1,31.4
		c0,0.1,0,0.1-0.1,0.1c-0.1,0-0.2,0-0.2,0.1C142.8,31.7,142.9,31.6,143.1,31.4 M145.6,29c1-1.5,1.4-2.2,1.3-2.3
		c0-0.1-0.4,0.4-1.2,1.5c-0.1,0.2-0.2,0.3-0.3,0.5c-0.1,0.2-0.2,0.3-0.3,0.5c0.1,0,0.2,0,0.2-0.1C145.5,29,145.6,29,145.6,29
		 M168.7,25.3c-6.8,1.5-14.1,3.4-21.8,5.8c-0.1,0-0.1,0.1-0.1,0.2c0,0.2,0,0.3-0.1,0.4c9.3-2.9,16.4-4.9,21.2-6L168.7,25.3z
		 M149.8,28.8c-0.2,0-0.7,0.1-1.7,0.4l-0.1,0.1c0,0.2,0,0.2-0.1,0.2L149.8,28.8z M161.3,25.5c-1.1,0.2-2.7,0.7-4.7,1.2
		c-2,0.6-3.3,0.9-4,1.1C157.5,27,160.4,26.2,161.3,25.5 M192.3,20.4c-5.2,0-10,0.4-14.6,1.2c1.1-0.2,6.7-0.6,16.7-1.2H192.3z"/>
	<path class="st0" d="M128.1,78.4c-1.4,0.7-2.9,1-4.5,1c-2,0-3.5-0.8-4.5-2.5c-0.9-1.7-1.4-3.6-1.4-5.8c0-1.3,0.1-2.2,0.2-2.8
		c1.1-9.6,5.4-20.9,13.1-33.7l2.6-4.3c0.3-0.5,0.8-1.3,1.5-2.5c0.7-1.1,1.2-2,1.5-2.5c0.2-0.2,0.4-0.7,0.8-1.4
		c0.4-0.7,0.7-1.2,1-1.6c0.3-0.4,0.7-0.9,1.1-1.5c0.4-0.6,0.9-1.1,1.3-1.3c0.4-0.3,0.9-0.5,1.4-0.7c0.5-0.2,1-0.2,1.5-0.1
		c0.5,0.1,1.1,0.4,1.7,0.8c-0.6,0.4-1.2,1.1-2,2c-0.7,0.9-1.6,2.1-2.6,3.5c-1,1.4-1.7,2.4-2.2,3.1l-3.2,5
		c-8.8,14.2-13.5,26.8-14.4,37.7c-0.2,0.7-0.2,1.1-0.2,1.2c0,1.1,0.4,2.1,1.1,2.8c0.7,0.7,1.6,1.1,2.7,1.1c0,0,3.1-1.5,4.5,0.4
		C130.6,78.2,128.1,78.4,128.1,78.4 M118.3,71.4c0,2,0.4,3.7,1.3,5.2c0.9,1.5,2.1,2.2,3.7,2.2c0.6,0,1,0,1.2-0.1H124
		c-1.7,0-3.1-0.7-4-2.1c-1-1.4-1.5-3.1-1.5-5c0-0.7,0-1.3,0.1-1.6c0.8-8.3,3.4-16.7,7.7-25.2c0.3-0.8,1-2.1,2-3.8
		c1-1.7,1.8-3.2,2.5-4.4c0.7-1.2,1-2,0.8-2.2c-4.6,7.9-7.7,13.9-9.3,18.2C119.6,60.1,118.3,66.4,118.3,71.4 M120.4,66.3
		c-0.4,1-0.6,2.6-0.6,4.9c0,1.7,0.2,2.7,0.5,3.1c-0.2-0.7-0.2-1.7-0.2-3.1C120.1,69.6,120.2,67.9,120.4,66.3 M121.8,59.9
		c-0.7,1.1-1,2.3-1,3.7l0.1,0.1c0.1,0,0.2-0.6,0.5-1.7C121.7,60.9,121.8,60.2,121.8,59.9 M122,56.7c-0.2,0.3-0.3,0.7-0.4,1
		c-0.1,0.3-0.1,0.6-0.1,0.7v0.2C121.6,58.7,121.8,58,122,56.7 M128.3,42.6c-2.7,4.3-4.6,8.6-5.6,12.8c2.3-4.7,3.7-7.9,4.2-9.6
		c0.1-0.2,0.3-0.6,0.7-1.4C128,43.6,128.2,43,128.3,42.6 M134.9,29.8c1-1.5,1.4-2.2,1.3-2.3c0-0.1-0.4,0.4-1.2,1.5
		c-0.1,0.2-0.2,0.3-0.3,0.5c-0.1,0.2-0.2,0.3-0.3,0.5c0.1,0,0.2,0,0.2-0.1C134.7,29.9,134.8,29.8,134.9,29.8"/>
	<path class="st0" d="M301.5,65.7c-2.3,0-3.4-1.4-3.4-4.3c0-0.7,0.5-2.9,1.6-6.7c2-4.9,3.7-8.1,4.9-9.7c0.3-0.5,0.9-0.9,1.8-1.3
		s1.6-0.5,2.1-0.4c0,0.1-0.3,0.7-0.9,2c-0.6,1.2-1,2.2-1,2.9c-0.2,0.4-0.7,1.1-1.2,2c-0.6,0.9-1,1.6-1.2,2.1
		c-1.6,3.3-2.7,6.2-3.1,8.7c-0.2,0.7,0,1.1,0.4,1.5c0.4,0.3,0.9,0.2,1.5-0.4c7.4-4,13.3-9.4,17.7-16.3l0.5,0.5l0.4-0.4
		c0.2,0.2,0.6,0.4,1,0.8c0.4,0.4,0.7,0.6,0.9,0.8l-0.1,0.2l-0.1,0.2l0.5,0.5c-2.1,2-3.2,5.2-3.2,9.7c0,2,0.5,2.9,1.5,2.9
		c0.3,0,0.6,0,0.7-0.1c3.5-1.6,6.1-3.4,7.7-5.4c0.3-0.4,0.8-0.8,1.3-1.1c0.5-0.3,1.1-0.7,1.8-1c0.7-0.3,1.2-0.6,1.5-0.9
		c3.2-1.2,5.2-1.9,5.9-2c0.7,0.2,0.5,1.1-0.6,2.6c-1.1,1.2-2.2,2.2-3.3,2.8c-3.4,2.8-6.9,5.2-10.4,7.4c-1.6,0.9-3.1,1.3-4.5,1.3
		c-1.3,0-2.5-0.4-3.4-1.1c-1.1-0.8-1.6-2.4-1.6-4.8v-2c0-0.7,0-1.1,0.1-1.5c-4,4.2-8.7,7.5-14,9.9C302.5,65.6,302,65.7,301.5,65.7
		 M298.3,61.5c0,2.5,0.9,3.7,2.8,3.7c0.7,0,2.2-0.5,4.3-1.5c4.6-2.6,8.5-5.6,11.7-9.1v-0.7c-0.1,0.1-0.2,0.2-0.4,0.5
		c-0.2,0.2-0.3,0.4-0.4,0.6c-4.5,4.3-9.1,7.6-13.7,9.7c-0.2,0.1-0.6,0.1-1,0.1c-0.7,0-1.4-0.3-1.9-0.9c-0.5-0.6-0.8-1.3-0.8-2.1
		v-1.2l-0.1-1l-0.2,0.7C298.3,60.7,298.3,61,298.3,61.5 M301.2,52.6c-1.1,1.6-1.7,3.4-1.8,5.3C300.5,55,301.1,53.2,301.2,52.6
		 M313.5,56.4c-0.2,0-0.5,0.2-0.9,0.6c-0.5,0.4-0.9,0.8-1.4,1.1c-0.4,0.3-0.7,0.4-0.8,0.1c-1.3,0.7-2.2,1.5-2.6,2.3
		c-0.5,0.4-1.3,0.9-2.3,1.5c-1.1,0.6-1.8,1-2.2,1.2v0.1c3.2-1.3,6.6-3.6,10.2-6.7C313.7,56.5,313.7,56.4,313.5,56.4 M315.8,54.3
		c-0.1,0-0.3,0.1-0.7,0.4c-0.4,0.3-0.5,0.5-0.4,0.7L315.8,54.3z M317.9,50.8c-0.5,0.5-1.1,1.1-1.7,2l1.5-1.1
		c0.1-0.1,0.1-0.2,0.1-0.4C317.8,51.1,317.8,50.9,317.9,50.8 M317.8,54.4c-0.2,0.2-0.4,0.7-0.4,1.5c0,0.4,0,0.7,0.1,0.9
		C317.6,56.2,317.6,55.4,317.8,54.4 M318.2,52.8c-0.2,0.4-0.4,0.8-0.5,1.1C317.9,53.6,318.1,53.2,318.2,52.8 M318.9,49.9l-0.1,0.2
		C318.9,50,318.9,50,318.9,49.9 M321.4,46.4h-0.1c-0.2,0.2-0.3,0.3-0.4,0.5V47c-0.1,0.2-0.2,0.4-0.5,0.7c-0.2,0.3-0.4,0.5-0.5,0.7
		c0.2-0.1,0.4-0.4,0.7-0.9c0.3-0.5,0.6-0.8,0.9-0.9v0.1c0-0.1,0-0.1,0.1-0.1h0.1l0.1-0.1c-0.1,0-0.1,0-0.1-0.1c0,0,0-0.1-0.1-0.1
		c-0.1,0-0.1,0-0.1,0.1C321.5,46.4,321.4,46.4,321.4,46.4 M322.5,47.3l-0.1,0.1h0.1c-0.1,0.2-0.2,0.4-0.5,0.7
		c-0.2,0.3-0.4,0.5-0.5,0.6c-0.9,1.4-1.4,2.2-1.5,2.5l0.1-0.2c0.1-0.2,0.2-0.2,0.2-0.2c0.1-0.3,0.2-0.7,0.5-1c0.2-0.3,0.5-0.7,0.9-1
		c0.3-0.4,0.6-0.6,0.7-0.8v-0.2h0.1l0.1-0.1c0-0.2,0-0.2,0.1-0.2l-0.5-0.5c0.2,0.2,0.3,0.3,0.1,0.5V47.3z M321.4,46.4l0.1,0.1h0.2
		C321.7,46.5,321.5,46.4,321.4,46.4 M332.5,55.5c-4.7,3.4-7.8,5.4-9.1,6c-0.2,0.1-0.7,0.2-1.6,0.4l0.2,0.1c0.6,0,1.1-0.1,1.7-0.4
		c0.6-0.2,1.1-0.5,1.5-0.8c0.4-0.3,0.9-0.7,1.6-1.1c0.7-0.4,1.1-0.8,1.5-0.9c2.6-2,4-3,4.2-3.2V55.5z"/>
	<path class="st0" d="M430,99.6c-2.3,0-4.1-0.7-5.5-2.1c-1.4-1.4-2-3.3-2-5.5c0-1.4,0.3-2.6,0.9-3.7c0.9-1.9,2.2-3.7,3.9-5.6
		c1.7-1.8,3.3-3.3,4.7-4.2c1.4-1,3.3-2.3,5.8-3.8c4.8-2.9,9.7-5,14.7-6.5l0.7-1.8c0.8-2.4,1.9-5.9,3.1-10.5c1.3-4.6,2-7.3,2.3-8.2
		c-3.2,2.8-6.4,5.1-9.7,7c-0.5,0.2-1.1,0.2-2,0.2c-2.5,0-3.7-1.7-3.7-5.2c0-2.5,0.6-4.8,1.7-7.1c1.7-5.1,4.3-8.6,7.9-10.6
		c0.7-0.4,1.1-0.6,1.2-0.6c0.1,0,0.1,0,0.1,0.1c0,0.3-0.6,1.3-1.7,2.8c-1.1,1.6-1.7,2.5-1.8,2.8c-2.9,5.6-4.3,10.3-4.2,14.1h0.5
		c0.8,0,1.7-0.3,2.7-0.9c1-0.6,2-1.4,3.1-2.4c1.1-1,1.9-1.6,2.5-2c2-1.6,3.8-3.3,5.5-5.2c2-5.3,3.9-8.8,5.5-10.4
		c1-0.9,2-1.5,3.2-1.8l0.1-0.1l0.1,0.1c1.3-0.4,2.6-0.5,3.9-0.2c-2.5,4.8-5.7,9.4-9.4,13.6c-1,2.9-2.3,7.1-3.9,12.7
		c-1.6,5.6-2.9,9.7-3.7,12.3c6.8-1.6,14.6-2.5,23.3-2.5c4,0,8.5,0.2,13.6,0.6c11.8,1,21.2,4.4,28.3,10.2c1.2,0.7,2.6,2,4,4
		c1.5,2,2.5,3.9,2.9,5.7c0.3,1,0.5,2.2,0.5,3.6c0,1-0.1,1.5-0.4,1.5s-0.6-0.6-1-1.8c-0.1-0.1-0.1,0-0.1,0.1v0.2
		c-0.2,1.1-0.6,0.9-1-0.4c-2.1-5.3-5.8-9.5-11-12.6c-5.2-3.1-10.9-5.1-17.2-6c-6.4-0.8-12.2-1.2-17.4-1.2c-9.5,0-18.2,1.1-26.3,3.2
		c-2.9,8.1-6.5,14.5-10.7,19.3C439.4,96.7,434.5,99.6,430,99.6 M452.1,69.5c-10.4,3.2-18.8,8.3-25.3,15.2c-2.1,2.5-3.2,5-3.2,7.6
		c0,1.8,0.7,3.4,2.1,4.7c1.2,1,2.7,1.5,4.5,1.5c3.1,0,6.3-1.5,9.7-4.5c5.8-5,10.5-12.4,14.1-22.1L454,72h-0.1
		c-5,13.2-11.6,21.7-19.8,25.5c-1.1,0.6-2.2,0.9-3.4,0.9c-1.8,0-3.4-0.6-4.8-1.7c-1.4-1.1-2.1-2.6-2.1-4.3c0-0.5,0.1-1.1,0.4-1.7
		c0.6-2,1.7-4,3.4-6c1.7-2,3.2-3.4,4.4-4.4c1.3-0.9,3.2-2.3,5.7-4c4-2.6,8.8-4.8,14.4-6.5l0.1-0.1V69.5z M451.9,70.3
		c-9.6,3-17.5,7.7-23.8,14.1c-2.6,2.6-3.9,5.3-3.9,8c0,1.6,0.6,2.9,1.7,4c1.3,1.1,2.8,1.6,4.4,1.6c2.9,0,6-1.4,9.1-4.2
		c6-5,10.7-12.2,14.2-21.7l-0.2,0.1h-0.2c-1.8,4.8-4,9.2-6.7,13.3c-5.2,7-10.1,11.1-14.8,12.1c-0.3,0.1-0.8,0.1-1.5,0.1
		c-1.6,0-2.9-0.6-4-1.7c-1.1-1.1-1.7-2.5-1.7-3.9c0-0.7,0.2-1.5,0.6-2.3c0.8-1.9,2-3.7,3.7-5.5c1.6-1.8,3.1-3.2,4.4-4.1
		c1.3-0.9,3.2-2.2,5.5-3.7c4.1-2.5,8.5-4.4,13.1-5.9C451.7,70.4,451.8,70.4,451.9,70.3 M426.2,89.3c-0.6,0.6-0.9,1.6-0.9,2.9
		c0,2.1,0.7,3.4,2.2,3.9c-1.4-0.8-2.1-2.1-2.1-3.8C425.5,91.2,425.7,90.2,426.2,89.3 M450.8,73c-9.6,3.4-17.1,8.2-22.5,14.5
		c-1.2,1-1.8,2.3-1.8,3.9c0,1.2,0.4,2.3,1.2,3.2c0.8,0.9,1.7,1.3,2.9,1.3c1,0,1.9-0.3,2.8-0.9C440.6,91.1,446.4,83.8,450.8,73
		 M442.5,88.9c-1.6,1.8-3.5,3.6-5.5,5.3C438.8,92.8,440.7,91.1,442.5,88.9 M459.7,44c-3.8,3.7-7.8,6.7-12.1,9.1
		c-0.2,0.1-0.4,0.1-0.6,0.1c-1,0-1.6-1-1.8-2.9v1.5c0.6,1.1,1.3,1.6,2.1,1.6c0.9,0,2.3-0.7,4-2c1.8-1.3,2.7-2,2.8-2.1
		c2.3-1.7,4.1-3.3,5.5-4.7c0.1-0.1,0.1-0.2,0.1-0.4V44z M446.6,83.4c0.3-0.2,0.6-0.6,0.9-1.2c0.3-0.5,0.5-1,0.7-1.4l0.2-0.6
		C447.6,81.7,447,82.7,446.6,83.4 M460,43.3c-2.6,2.5-5.2,4.7-7.7,6.5C454.9,48,457.4,45.8,460,43.3 M453.7,67.8h0.1l1.3-4.4
		C454.4,65.8,454,67.2,453.7,67.8 M454.7,68.8c-0.3,0-0.5,0.1-0.5,0.4C454.5,69,454.7,68.9,454.7,68.8 M461.8,44.8l-0.4,0.4
		c-0.8,2.5-1.9,6.2-3.4,11.2c-1.4,5-2.6,8.8-3.4,11.2c0.1,0,0.2,0,0.2-0.1c0.1,0,0.2-0.1,0.2-0.1c0.8-2.5,1.9-6.3,3.3-11.3
		C459.9,51.1,461,47.3,461.8,44.8 M455.3,68.6c-0.2,0-0.4,0.1-0.4,0.4C455.2,68.9,455.3,68.8,455.3,68.6 M462.5,43.9l-0.1,0.1
		c0,0.2,0,0.2-0.1,0.2c-0.9,2.7-2.1,6.7-3.6,11.9c-1.5,5.2-2.6,9-3.3,11.3c0.1,0,0.1,0,0.1-0.1c0,0,0-0.1,0.1-0.1
		c0.8-2.5,1.9-6.4,3.4-11.7C460.5,50.4,461.6,46.5,462.5,43.9 M457.5,55.2c-0.1,0-0.6,1.8-1.6,5.3c0.2-0.5,0.5-1.4,0.9-2.6
		c0.3-1.3,0.6-2.1,0.7-2.5V55.2z M456.2,68.9c0,0.2,0,0.3-0.1,0.4c7.3-1.9,15.6-2.8,24.9-2.8h1.3l1-0.1c0-0.1-1.2-0.1-3.6-0.1
		C471.2,66.2,463.4,67.1,456.2,68.9 M472,66c-5.5,0.4-10.7,1.2-15.6,2.3l-0.1,0.1v0.1C460.6,67.4,465.9,66.6,472,66 M464.4,35.2
		l-1.7,3.8c0.2-0.3,0.5-0.8,0.8-1.4c0.3-0.6,0.5-1.1,0.7-1.6C464.3,35.5,464.4,35.3,464.4,35.2 M463.3,40.3
		c-0.3,0.6-0.5,0.9-0.6,1.1C462.8,41.2,463,40.8,463.3,40.3 M463.9,39c-0.1,0.1-0.3,0.4-0.6,0.9C463.6,39.5,463.8,39.2,463.9,39
		 M465.1,37.4c-0.3,0.3-0.5,0.7-0.6,1C464.8,38,465,37.7,465.1,37.4 M467.8,31.9c-1.4,0.9-2.1,1.8-2.2,2.8l-0.7,1.5
		c0.2-0.3,0.7-1,1.3-2C466.8,33.1,467.3,32.4,467.8,31.9 M469.2,33c-1.2,1.3-2.2,2.7-2.8,4C467.7,35.2,468.6,33.9,469.2,33
		 M467.3,32.6c-0.3,0.2-0.5,0.6-0.6,1c0.1-0.1,0.2-0.2,0.3-0.5C467.1,32.9,467.2,32.7,467.3,32.6 M469.3,31.6
		c-0.2,0.1-0.3,0.2-0.4,0.2C469.1,31.8,469.2,31.7,469.3,31.6 M470.2,31.3c-0.2,0-0.4,0.1-0.4,0.2C470,31.5,470.2,31.4,470.2,31.3
		 M470.6,28.9c-0.1,0.1-0.2,0.3-0.4,0.6c0,0.1,0,0.1,0.1,0.1c0.2-0.2,0.3-0.3,0.4-0.5C470.8,29,470.7,28.9,470.6,28.9"/>
	<path class="st0" d="M119.2,72.5c-0.4,0.3-0.8,0.5-1.2,0.8c-1.9,1.3-2.9,2-3.1,2.1c-2.8,1.9-4.8,2.8-6,2.8c-0.1,0-0.2,0-0.2-0.1
		h-0.1c1,0,2-0.3,2.9-0.9c1.4-0.8,3.4-2.1,5.9-3.9c0.6-0.4,1.2-0.8,1.7-1.2c-0.2-0.3-0.4-0.7-0.6-1c0,0-0.1,0.1-0.1,0.1
		c-0.7,0.6-1.7,1.3-3.1,2.3c-1.4,1-2.3,1.6-2.5,1.7c-0.2,0.1-0.8,0.4-1.7,0.9c-0.9,0.5-1.6,0.8-2.2,0.8c-1.3,0-2-1-2-3.1
		c0-0.1,0-0.2,0.1-0.5c0-0.2,0.1-0.4,0.1-0.5c2.3-1.9,4.1-3.7,5.3-5.4c1.3-2.2,2-3.8,2-4.9c0-1.7-0.7-2.6-2.2-2.6
		c-0.7,0-1.4,0.3-2,0.9c-3.2,2.9-5.3,6.3-6.3,10.4c-2.1,1.6-4.9,3.4-8.2,5.3c-0.2,0.1-0.7,0.3-1.5,0.7c-0.7,0.4-1.4,0.7-1.9,0.9
		c-0.5,0.2-1.1,0.3-1.7,0.3c-0.8,0-1.5-0.4-1.9-1.1c-0.4-0.7-0.7-1.6-0.7-2.5c0-0.7,0.1-1.3,0.4-2c1.8-4,5.1-6.8,9.8-8.5
		c0.3-0.1,1.1-0.3,2.3-0.6c1.2-0.3,2.1-0.6,2.7-1c0.6-0.3,1.5-0.5,2.6-0.6c1.2-0.1,2-0.2,2.5-0.4c-0.3-0.2-0.8-0.4-1.4-0.8
		c-0.6-0.4-1.2-0.7-1.7-0.9c-0.5-0.2-1-0.3-1.6-0.3c-4.3,0-8.8,1.9-13.3,5.6c-3.7,3.2-5.5,6.4-5.5,9.6c0,1.7,0.6,3.2,1.7,4.5
		c1.1,1.3,2.5,2,4,2c0.1,0,0.2,0,0.4-0.1c0.2,0,0.3-0.1,0.4-0.1c2.9-0.7,6.8-2.7,11.9-6.1c0.2,1.5,0.8,2.7,1.8,3.7
		c1,1,2.3,1.5,3.7,1.5c1.7,0,3.4-0.6,5.2-1.7c2.6-1.7,4.9-3.2,6.8-4.5C120.3,74.1,119.7,73.4,119.2,72.5 M93.9,64.3
		c-1.8,1.2-3.6,2.7-5.4,4.5C89.5,66.7,91.3,65.2,93.9,64.3 M89,79.7c0.6,0.2,1.1,0.4,1.7,0.4c1.1,0,2.5-0.5,4.2-1.5
		c0.2-0.4,0.7-0.9,1.5-1.3c0.8-0.5,1.6-0.8,2.2-0.9l0.1,0.1c0.2,0,0.7-0.3,1.7-1c1-0.7,1.6-1,2-1l0.2,0.1c-1.2,1-3.7,2.5-7.5,4.4
		c-1.8,0.9-3.2,1.3-4.3,1.3c-0.7,0-1.3-0.2-1.8-0.5V79.7z M103.3,75.5c-1.2,0.9-3.2,2.1-5.8,3.6c-0.3,0.2-1,0.5-2.1,1
		c-1.1,0.5-2,0.9-2.7,1.1c-0.7,0.2-1.5,0.4-2.2,0.4c-1.5,0-2.7-0.7-3.8-2c-1.1-1.3-1.6-2.7-1.6-4.2c0-2.2,0.7-3.8,2-4.9
		c-1,2-1.5,3.6-1.5,4.9c0,1.5,0.5,2.8,1.3,3.9c0.9,1.1,2,1.8,3.4,1.8c0.7,0,1.3-0.1,2.1-0.3c0.7-0.2,1.3-0.4,1.8-0.7
		c0.4-0.2,1.1-0.6,2-1c0.9-0.4,1.5-0.8,1.8-0.9c1.9-1.1,3.6-2.1,5.3-3.2V75.5z M104.8,70.7c0.7-3.3,2.5-6.3,5.4-9.1
		c0.3-0.5,0.9-0.7,1.6-0.7c1.3,0,2,0.6,2,1.8v0.2c-0.4,2.9-2.7,6.1-6.9,9.7c0.1-0.2,0.1-0.4,0.1-0.6c3.8-3.4,5.9-6.4,6.5-9
		c0-0.1,0-0.2,0.1-0.2v-0.1c0-1.1-0.6-1.6-1.8-1.6c-0.7,0-1.1,0.2-1.5,0.6C108,63.8,106.2,66.8,104.8,70.7 M109.8,67.4
		c-0.3,0.7-0.9,1.5-1.8,2.2C108.2,69.1,108.9,68.3,109.8,67.4 M109.5,65c0-0.5,0.4-1.2,1.3-2.1C110.3,64.1,109.8,64.8,109.5,65
		 M111.9,62.7l-0.1-0.1l-0.7,0.2c0.1-0.1,0.4-0.2,0.9-0.5c0.2,0,0.4,0.2,0.4,0.5c0,0.2,0,0.5-0.1,0.6v-0.7H111.9z"/>
</g>
</svg>
