<?xml version="1.0" encoding="utf-8"?>
<!-- Generator: Adobe Illustrator 22.1.0, SVG Export Plug-In . SVG Version: 6.00 Build 0)  -->
<svg version="1.1" id="Layer_1" xmlns="http://www.w3.org/2000/svg" xmlns:xlink="http://www.w3.org/1999/xlink" x="0px" y="0px"
	 viewBox="0 0 31.2 35.2" style="enable-background:new 0 0 31.2 35.2;" xml:space="preserve">
<style type="text/css">
	.st0{fill:#97CA4C;}
	.st1{clip-path:url(#SVGID_2_);fill:none;stroke:#25282A;stroke-width:1.5;stroke-miterlimit:10;}
	.st2{fill:none;stroke:#25282A;stroke-width:1.5;stroke-miterlimit:10;}
	.st3{clip-path:url(#SVGID_4_);fill:none;stroke:#25282A;stroke-width:1.5;stroke-miterlimit:10;}
</style>
<rect x="13.7" y="27.3" class="st0" width="17.5" height="7.1"/>
<g>
	<defs>
		<rect id="SVGID_1_" y="0" width="31.2" height="35.2"/>
	</defs>
	<clipPath id="SVGID_2_">
		<use xlink:href="#SVGID_1_"  style="overflow:visible;"/>
	</clipPath>
	<polygon class="st1" points="29.1,14.4 29.1,0.8 0.8,0.8 0.8,24.9 10.8,34.4 29.1,34.4 	"/>
	<polyline class="st1" points="0.7,24.9 10.8,24.8 10.8,34.4 	"/>
</g>
<line class="st2" x1="14.9" y1="14.2" x2="26" y2="14.2"/>
<line class="st2" x1="15.3" y1="21" x2="25.8" y2="21"/>
<line class="st2" x1="15.3" y1="7.5" x2="26" y2="7.5"/>
<g>
	<defs>
		<rect id="SVGID_3_" y="0" width="31.2" height="35.2"/>
	</defs>
	<clipPath id="SVGID_4_">
		<use xlink:href="#SVGID_3_"  style="overflow:visible;"/>
	</clipPath>
	<path class="st3" d="M7.8,5.7h1.6c0.5,0,0.9,0.4,0.9,0.9v1.6c0,0.5-0.4,0.9-0.9,0.9H7.8c-0.5,0-0.9-0.4-0.9-0.9V6.7
		C6.9,6.1,7.3,5.7,7.8,5.7z"/>
	<path class="st3" d="M7.8,12.5h1.6c0.5,0,0.9,0.4,0.9,0.9V15c0,0.5-0.4,0.9-0.9,0.9H7.8c-0.5,0-0.9-0.4-0.9-0.9v-1.6
		C6.9,12.9,7.3,12.5,7.8,12.5z"/>
</g>
</svg>
