<?xml version="1.0" encoding="utf-8"?>
<!-- Generator: Adobe Illustrator 22.1.0, SVG Export Plug-In . SVG Version: 6.00 Build 0)  -->
<svg version="1.1" id="Layer_1" xmlns="http://www.w3.org/2000/svg" xmlns:xlink="http://www.w3.org/1999/xlink" x="0px" y="0px"
	 viewBox="0 0 18.7 23.4" style="enable-background:new 0 0 18.7 23.4;" xml:space="preserve">
<style type="text/css">
	.st0{clip-path:url(#SVGID_2_);fill:#97CA4F;}
	.st1{clip-path:url(#SVGID_2_);fill:none;stroke:#26282A;stroke-miterlimit:10;}
</style>
<g>
	<defs>
		<rect id="SVGID_1_" y="0" width="18.7" height="23.4"/>
	</defs>
	<clipPath id="SVGID_2_">
		<use xlink:href="#SVGID_1_"  style="overflow:visible;"/>
	</clipPath>
	<path class="st0" d="M18.4,16.5l-3.5-3.4L12,15l-2.5-3.8L7,7.3l2.8-1.8L8.2,0.8C8,0.3,7.4,0.1,6.9,0.3L4.1,1.6
		C3.2,2,2.6,2.8,2.6,3.8c0,4.1,1.8,7.6,3.2,9.8c1.4,2.2,3.9,5.2,7.6,6.9c0.9,0.4,1.9,0.2,2.6-0.4l2.3-2.1
		C18.8,17.5,18.8,16.9,18.4,16.5"/>
	<path class="st1" d="M17.8,18.4L14,14.7l-3.1,2l-2.7-4.2L5.4,8.2l3.1-2L6.6,1.2C6.4,0.6,5.8,0.4,5.3,0.6L2.1,2
		c-1,0.4-1.6,1.4-1.6,2.5c0,4.5,1.9,8.3,3.5,10.7c1.6,2.4,4.3,5.7,8.4,7.5c1,0.4,2.1,0.2,2.9-0.5l2.6-2.3
		C18.3,19.5,18.3,18.8,17.8,18.4z"/>
</g>
</svg>
